<?xml version="1.0" encoding="utf-8"?><svg viewBox="0 0 243 242" xmlns="http://www.w3.org/2000/svg" xmlns:xlink="http://www.w3.org/1999/xlink"><style>:root>svg{display:none}:root>svg:target{display:block}</style><svg fill="none" viewBox="0 0 78 78" id="Ckeck" xmlns="http://www.w3.org/2000/svg"><path d="M75.418 35.679v3.342A36.324 36.324 0 1 1 53.877 5.82" stroke="#1A3453" stroke-width="4.843" stroke-linecap="round" stroke-linejoin="round"/><path d="M75.418 9.96 39.093 46.321 28.195 35.424" stroke="#1A3453" stroke-width="4.843" stroke-linecap="round" stroke-linejoin="round"/></svg><svg fill="none" viewBox="0 0 71 59" id="Down_Arrow" xmlns="http://www.w3.org/2000/svg"><path d="m24.805 24.419 10.897 9.686L46.6 24.42" stroke="#1A3453" stroke-width="2.422" stroke-linecap="round" stroke-linejoin="round"/></svg><svg fill="none" viewBox="0 0 50 90" id="Facebook" xmlns="http://www.w3.org/2000/svg"><path d="M14.135 50.734H3.01c-1.798 0-2.36-.674-2.36-2.36V34.777c0-1.798.675-2.36 2.36-2.36h11.125v-9.89c0-4.494.787-8.764 3.034-12.698 2.36-4.045 5.732-6.742 10.002-8.315C29.98.502 32.79.053 35.824.053h11.012c1.574 0 2.248.674 2.248 2.247v12.811c0 1.573-.674 2.248-2.248 2.248-3.034 0-6.068 0-9.102.112-3.034 0-4.607 1.46-4.607 4.607-.113 3.372 0 6.63 0 10.114h13.035c1.798 0 2.472.674 2.472 2.472v13.598c0 1.798-.562 2.36-2.472 2.36H33.127v36.634c0 1.91-.562 2.584-2.585 2.584H16.495c-1.685 0-2.36-.674-2.36-2.36V50.734Z" fill="#1A3453"/></svg><svg fill="none" viewBox="0 0 74 73" id="Group" xmlns="http://www.w3.org/2000/svg"><path d="M37.033.066c-1.302 0-2.604.07-3.898.21a34.29 34.29 0 0 0-4.187.71 36.327 36.327 0 0 0-19.253 11.47c-13.192 15.146-11.61 38.117 3.536 51.31 14.5 12.63 36.325 11.789 49.81-1.918A36.306 36.306 0 0 0 73.4 36.434C73.4 16.347 57.118.065 37.033.065ZM12.644 12.837c.192-.199.39-.389.586-.582.225-.222.45-.445.68-.66.202-.188.41-.37.618-.554.234-.208.467-.415.707-.615.21-.178.428-.35.643-.521.243-.194.485-.388.735-.575.22-.166.445-.327.67-.485.251-.18.503-.363.76-.53a32.505 32.505 0 0 1 2.19-1.357 37.793 37.793 0 0 1 1.537-.827 35.296 35.296 0 0 1 1.58-.745c.284-.122.573-.243.861-.364.251-.103.5-.204.754-.3.294-.112.59-.217.888-.32.253-.09.506-.178.763-.261.302-.097.607-.187.912-.276.256-.074.51-.15.766-.219.098-.025.196-.046.295-.072a30.078 30.078 0 0 0-7.748 12.581 40.717 40.717 0 0 1-8.306-3.197c.04-.042.074-.085.11-.12Zm-1.743 1.952c2.912 1.578 6 2.807 9.2 3.66a62.903 62.903 0 0 0-2.448 16.772H3.118a33.87 33.87 0 0 1 7.783-20.432Zm0 43.289a33.874 33.874 0 0 1-7.783-20.433h14.535a62.896 62.896 0 0 0 2.448 16.772 42.144 42.144 0 0 0-9.2 3.66Zm17.386 11.147c-.245-.061-.498-.141-.75-.215-.307-.09-.615-.18-.918-.278-.256-.082-.508-.17-.76-.26a28.904 28.904 0 0 1-1.642-.619c-.29-.121-.58-.242-.866-.363-.248-.11-.494-.222-.739-.337-.282-.134-.563-.27-.848-.41-.243-.121-.485-.243-.728-.375a33.803 33.803 0 0 1-2.314-1.359c-.23-.146-.46-.296-.687-.448a33.53 33.53 0 0 1-.767-.539c-.222-.158-.444-.317-.662-.484-.251-.19-.497-.385-.742-.581-.215-.171-.428-.34-.638-.516-.242-.202-.476-.411-.711-.62-.207-.183-.414-.364-.615-.55-.232-.216-.456-.44-.681-.662-.195-.193-.394-.383-.586-.58l-.104-.114a40.685 40.685 0 0 1 8.306-3.197 30.086 30.086 0 0 0 7.748 12.58c-.099-.025-.198-.046-.296-.073Zm7.534 1.055c-5.187-.737-9.734-6.15-12.595-14.145a61.612 61.612 0 0 1 12.595-1.483V70.28Zm0-18.053c-4.496.06-8.973.594-13.357 1.593a60.644 60.644 0 0 1-2.386-16.175H35.82v14.582Zm0-17.006H20.078a60.63 60.63 0 0 1 2.386-16.175c4.384 1 8.861 1.534 13.357 1.593v14.582Zm0-17.006a61.534 61.534 0 0 1-12.595-1.483c2.86-7.995 7.408-13.408 12.595-14.146v15.629Zm27.344-3.426a33.874 33.874 0 0 1 7.783 20.432H56.413a62.895 62.895 0 0 0-2.447-16.771 42.16 42.16 0 0 0 9.2-3.661ZM45.77 3.639c.254.064.508.144.76.218.306.09.614.18.917.278.256.082.508.17.76.259a28.904 28.904 0 0 1 1.642.62c.29.12.58.242.867.363.247.11.493.221.738.337.282.133.563.27.848.41.243.121.485.242.728.374a33.68 33.68 0 0 1 2.314 1.36c.23.146.46.295.687.448.258.174.513.355.766.537a27.998 27.998 0 0 1 1.405 1.064c.214.17.428.34.638.517.242.2.476.41.711.619.207.183.414.364.615.55.232.216.456.44.681.662.196.193.394.383.586.58l.104.114a40.684 40.684 0 0 1-8.306 3.197 30.085 30.085 0 0 0-7.757-12.579c.098.026.197.046.296.073Zm-7.525-1.053c5.187.738 9.735 6.151 12.595 14.146a61.597 61.597 0 0 1-12.595 1.483V2.586Zm0 18.053a63.838 63.838 0 0 0 13.357-1.593 60.647 60.647 0 0 1 2.387 16.175H38.245V20.639Zm0 17.006H53.99a60.636 60.636 0 0 1-2.387 16.175c-4.384-1-8.86-1.533-13.357-1.593V37.647Zm0 32.635V54.652a61.54 61.54 0 0 1 12.595 1.483c-2.86 7.994-7.408 13.408-12.595 14.145Zm23.177-10.25c-.192.197-.39.387-.584.58-.226.222-.451.446-.683.662-.201.188-.408.364-.614.552-.236.208-.47.416-.71.618-.212.177-.428.348-.643.52-.243.194-.485.388-.735.574-.22.166-.445.328-.67.485-.251.18-.503.364-.76.531-.228.155-.46.306-.693.454-.259.167-.52.329-.784.484-.242.142-.474.28-.713.418a35.948 35.948 0 0 1-1.537.826 35.718 35.718 0 0 1-1.58.746l-.861.364c-.251.101-.5.203-.753.299-.296.113-.593.218-.89.321-.253.089-.505.177-.761.26-.303.098-.606.188-.915.276-.254.075-.508.15-.764.22-.098.025-.196.045-.294.07a30.08 30.08 0 0 0 7.747-12.58 40.719 40.719 0 0 1 8.306 3.197c-.04.044-.074.086-.109.122Zm1.743-1.952a42.118 42.118 0 0 0-9.2-3.661 62.9 62.9 0 0 0 2.448-16.772h14.535a33.87 33.87 0 0 1-7.783 20.433Z" fill="#1A3453"/></svg><svg fill="none" viewBox="0 0 243 242" id="Left-Arrow" xmlns="http://www.w3.org/2000/svg"><g filter="url(#ea)"><circle cx="121.237" cy="112" r="36.325" fill="#E6F1FE"/></g><path d="m128.502 98.32-14.347 14.347 14.347 14.348" stroke="#4F9CF9" stroke-width="3.633" stroke-linecap="square"/><defs><filter id="ea" x=".153" y=".603" width="242.168" height="242.167" filterUnits="userSpaceOnUse" color-interpolation-filters="sRGB"><feFlood flood-opacity="0" result="BackgroundImageFix"/><feColorMatrix in="SourceAlpha" values="0 0 0 0 0 0 0 0 0 0 0 0 0 0 0 0 0 0 127 0" result="hardAlpha"/><feMorphology radius="36.325" in="SourceAlpha" result="effect1_dropShadow_107_72925"/><feOffset dy="9.687"/><feGaussianBlur stdDeviation="60.542"/><feComposite in2="hardAlpha" operator="out"/><feColorMatrix values="0 0 0 0 0 0 0 0 0 0 0 0 0 0 0 0 0 0 0.15 0"/><feBlend in2="BackgroundImageFix" result="effect1_dropShadow_107_72925"/><feBlend in="SourceGraphic" in2="effect1_dropShadow_107_72925" result="shape"/></filter></defs></svg><svg fill="none" viewBox="0 0 73 74" id="Linkedin" xmlns="http://www.w3.org/2000/svg"><path d="M72.872 73.153v-.003h.018V46.422c0-13.076-2.786-23.148-17.919-23.148-7.274 0-12.156 4.032-14.149 7.855h-.21v-6.635H26.264V73.15h14.94V49.057c0-6.343 1.19-12.477 8.967-12.477 7.662 0 7.776 7.24 7.776 12.884v23.689h14.925ZM1.322 24.36h15.18v47.71H1.323V24.36ZM8.915.503C4.126.503.24 4.37.24 9.137s3.886 8.715 8.675 8.715c4.789 0 8.675-3.949 8.675-8.715C17.587 4.371 13.7.503 8.915.503Z" fill="#1A3453"/></svg><svg fill="none" viewBox="0 0 73 53" id="Quote" xmlns="http://www.w3.org/2000/svg"><path d="M72.962 11.454 70.63.737c-16.782.769-28.415 7.75-28.415 28.284v23.636h29.318V22.95H60.431c0-6.589 4.134-10.464 12.53-11.497ZM31.056 11.454 28.726.738C11.943 1.506.31 8.488.31 29.023v23.635H29.63V22.952H18.52c0-6.589 4.133-10.464 12.536-11.498Z" fill="currentColor"/></svg><svg fill="none" viewBox="0 0 243 242" id="Right-Arrow" xmlns="http://www.w3.org/2000/svg"><g filter="url(#ia)"><circle cx="121.382" cy="112" r="36.325" fill="#E6F1FE"/></g><path d="m114.117 98.32 14.347 14.348-14.347 14.347" stroke="#4F9CF9" stroke-width="3.633" stroke-linecap="square"/><defs><filter id="ia" x=".298" y=".603" width="242.168" height="242.167" filterUnits="userSpaceOnUse" color-interpolation-filters="sRGB"><feFlood flood-opacity="0" result="BackgroundImageFix"/><feColorMatrix in="SourceAlpha" values="0 0 0 0 0 0 0 0 0 0 0 0 0 0 0 0 0 0 127 0" result="hardAlpha"/><feMorphology radius="36.325" in="SourceAlpha" result="effect1_dropShadow_107_72928"/><feOffset dy="9.687"/><feGaussianBlur stdDeviation="60.542"/><feComposite in2="hardAlpha" operator="out"/><feColorMatrix values="0 0 0 0 0 0 0 0 0 0 0 0 0 0 0 0 0 0 0.15 0"/><feBlend in2="BackgroundImageFix" result="effect1_dropShadow_107_72928"/><feBlend in="SourceGraphic" in2="effect1_dropShadow_107_72928" result="shape"/></filter></defs></svg><svg fill="none" viewBox="0 0 74 74" id="Right_arrow_Icon" xmlns="http://www.w3.org/2000/svg"><path d="M24.66 36.922h24.217M36.77 24.813l12.108 12.109L36.769 49.03" stroke="#1A3453" stroke-width="2.422" stroke-linecap="round" stroke-linejoin="round"/></svg><svg fill="none" viewBox="0 0 94 20" id="Slider" xmlns="http://www.w3.org/2000/svg"><circle cx="9.575" cy="10.001" r="9.375" fill="#4F9CF9"/><circle cx="47.077" cy="10.001" r="9.375" fill="#043873"/><circle cx="84.579" cy="10.001" r="9.375" fill="#4F9CF9"/></svg><svg fill="none" viewBox="0 0 73 60" id="Twitter" xmlns="http://www.w3.org/2000/svg"><path d="M72.746 7.251a31.053 31.053 0 0 1-8.582 2.352c3.088-1.843 5.444-4.74 6.552-8.232-2.878 1.716-6.057 2.929-9.444 3.605A14.925 14.925 0 0 0 50.392.263c-8.245 0-14.884 6.693-14.884 14.898 0 1.18.1 2.316.345 3.396-12.382-.604-23.339-6.538-30.699-15.579-1.285 2.23-2.039 4.782-2.039 7.529 0 5.158 2.656 9.73 6.616 12.378-2.393-.046-4.74-.74-6.73-1.835v.164c0 7.238 5.163 13.25 11.934 14.634-1.213.332-2.534.49-3.905.49-.954 0-1.917-.054-2.82-.254 1.93 5.899 7.406 10.235 13.917 10.376A29.926 29.926 0 0 1 3.66 52.812c-1.221 0-2.393-.054-3.564-.204 6.597 4.254 14.416 6.684 22.848 6.684 27.408 0 42.392-22.704 42.392-42.383 0-.658-.023-1.294-.055-1.925 2.956-2.098 5.44-4.718 7.465-7.733Z" fill="#1A3453"/></svg><svg fill="none" viewBox="0 0 73 74" id="android-logo" xmlns="http://www.w3.org/2000/svg"><g clip-path="url(#la)" fill="#1A3453"><path d="M10.372 24.036c-1.252 0-2.314.436-3.187 1.31-.873.872-1.31 1.92-1.31 3.143v18.773c0 1.254.437 2.315 1.31 3.188.873.873 1.935 1.31 3.187 1.31 1.25 0 2.306-.437 3.166-1.31.857-.873 1.288-1.934 1.288-3.188V28.49c0-1.223-.437-2.27-1.31-3.144-.873-.873-1.922-1.31-3.144-1.31ZM46.525 7.182l3.1-5.719c.203-.378.13-.668-.218-.873-.379-.176-.67-.086-.873.262l-3.143 5.764C42.625 5.393 39.7 4.78 36.615 4.78c-3.086 0-6.011.612-8.776 1.835L24.696.852C24.49.504 24.2.415 23.822.59c-.35.205-.422.495-.217.873l3.1 5.719c-3.144 1.603-5.647 3.835-7.51 6.702-1.863 2.869-2.794 6.003-2.794 9.41h40.384c0-3.406-.932-6.54-2.794-9.41-1.863-2.867-4.352-5.099-7.466-6.702ZM28.603 15.5a1.636 1.636 0 0 1-1.202.503c-.466 0-.858-.167-1.178-.503a1.673 1.673 0 0 1-.48-1.2c0-.466.16-.866.48-1.2.32-.335.713-.503 1.178-.503.466 0 .866.168 1.202.502.334.336.502.735.502 1.2a1.644 1.644 0 0 1-.502 1.2Zm18.402 0c-.32.336-.714.503-1.179.503-.466 0-.866-.167-1.201-.503a1.634 1.634 0 0 1-.502-1.2c0-.466.167-.866.502-1.2a1.64 1.64 0 0 1 1.201-.503c.466 0 .858.168 1.179.502.32.336.48.735.48 1.2 0 .467-.16.866-.48 1.2ZM16.574 53.941c0 1.34.466 2.475 1.397 3.406.931.93 2.066 1.396 3.405 1.396h3.231l.044 9.912c0 1.252.437 2.314 1.31 3.188.873.873 1.922 1.31 3.143 1.31 1.251 0 2.314-.437 3.187-1.31.873-.874 1.31-1.936 1.31-3.188v-9.91h6.025v9.91c0 1.252.436 2.314 1.31 3.188.873.873 1.934 1.31 3.186 1.31 1.251 0 2.314-.437 3.187-1.31.873-.874 1.31-1.936 1.31-3.188v-9.91h3.274c1.31 0 2.43-.466 3.362-1.397.931-.931 1.397-2.066 1.397-3.406V24.863H16.574v29.078ZM62.852 24.036c-1.223 0-2.27.43-3.144 1.288-.873.859-1.31 1.915-1.31 3.165v18.773c0 1.254.437 2.315 1.31 3.188.873.873 1.922 1.31 3.144 1.31 1.25 0 2.313-.437 3.187-1.31.873-.873 1.31-1.934 1.31-3.188V28.49c0-1.25-.437-2.306-1.31-3.165-.874-.858-1.936-1.288-3.187-1.288Z"/></g><defs><clipPath id="la"><path fill="#fff" transform="translate(.287 .503)" d="M0 0h72.65v72.65H0z"/></clipPath></defs></svg><svg fill="none" viewBox="0 0 73 74" id="apple-black-logo" xmlns="http://www.w3.org/2000/svg"><g clip-path="url(#ma)" fill="#1A3453"><path d="M56.233 41.226c-1.998-10.058 7.548-15.956 7.548-15.956s-3.719-5.381-9.97-6.766c-6.248-1.387-9.375.346-12.496 1.646-3.123 1.303-4.682 1.303-4.682 1.303-4.508 0-7.804-4.773-16.393-2.6-5.917 1.494-12.147 8.325-13.272 16.477-1.125 8.156 1.303 18.563 5.986 26.628 4.683 8.072 9.453 11.106 12.838 11.193 3.386.084 6.766-2.426 10.84-3.037 4.079-.605 6.588 1.478 10.588 2.604 3.985 1.122 5.381.08 9.97-3.823 4.602-3.903 8.767-15.099 8.767-15.099s-7.725-2.506-9.723-12.57ZM47.388 11.997C51.815 7.487 50.316.503 50.316.503s-6.217 1.09-10.382 5.424c-4.162 4.337-3.473 11.186-3.473 11.186s6.5-.607 10.927-5.116Z"/></g><defs><clipPath id="ma"><path fill="#fff" transform="translate(0 .503)" d="M0 0h72.65v72.65H0z"/></clipPath></defs></svg><svg fill="none" viewBox="0 0 73 73" id="database" xmlns="http://www.w3.org/2000/svg"><g clip-path="url(#na)" fill="#FFE492"><path d="M24.886 0C10.243 0 .039 5.085.039 9.65c0 4.564 10.204 9.648 24.847 9.648s24.847-5.085 24.847-9.648C49.733 5.085 39.529 0 24.886 0ZM.04 53.978v9.024c0 4.564 10.203 9.649 24.846 9.649 6.563 0 12.757-1.034 17.442-2.91 3.054-1.224 5.314-2.741 6.49-4.318a31.458 31.458 0 0 1-7.003-7.666c-4.907 1.571-10.706 2.396-16.929 2.396-7.83 0-15.154-1.35-20.625-3.799-1.595-.714-3.006-1.51-4.222-2.376ZM.04 36.234v8.901c0 4.564 10.203 9.649 24.846 9.649 5.193 0 10.176-.652 14.35-1.856-1.514-3.5-2.492-7.363-2.924-11.544-3.57.672-7.462 1.022-11.426 1.022-7.88 0-15.24-1.364-20.722-3.841-1.556-.703-2.934-1.484-4.125-2.33Z"/><path d="M.04 18.483v8.907c0 4.564 10.203 9.649 24.846 9.649 3.916 0 7.734-.37 11.17-1.074.006-.844.257-3.04 2.29-3.597 3.202-.88 5.443-2.99 5.642-5.885.081-1.192 1.573-2.862 2.684-2.846h3.06v-5.154c-1.19.847-2.568 1.628-4.124 2.332-5.489 2.483-12.848 3.85-20.722 3.85-7.874 0-15.233-1.367-20.722-3.85C2.608 20.11 1.23 19.33.039 18.483ZM65.079 29.006H49.064c-.895 3.723-3.758 6.777-7.63 8.109.3 17.87 10.573 24.685 15.102 26.822a.898.898 0 0 0 .82-.035c4.547-2.562 14.855-10.188 15.335-26.793-3.862-1.335-6.718-4.386-7.612-8.103Zm-8.967 23.272c-1.087 1.118-2.958 1.057-3.969-.13L47.04 46.16l4.087-3.481 3.19 3.743 8.9-9.154 3.851 3.742-10.956 11.268Z"/></g><defs><clipPath id="na"><path fill="#fff" transform="translate(.04)" d="M0 0h72.65v72.65H0z"/></clipPath></defs></svg><svg fill="none" viewBox="0 0 74 73" id="dropbox" xmlns="http://www.w3.org/2000/svg"><g clip-path="url(#oa)" fill="#0093EB"><path d="M14.945 54.583v-5.838l9.86 5.708L37 43.036v25.947l-22.055-14.4Z"/><path d="M3.145 39.145 15.988 27.47l21.017 12.974L24.81 51.859 3.145 39.145ZM15.984 27.469.676 15.793 22.73 4.117l15.568 10.379-22.314 12.973ZM59.057 54.712l-22.055 14.27V43.037l12.584 10.898 9.47-5.968v6.746Z"/><path d="M49.586 51.339 37.002 40.44l21.146-13.492 12.714 10.897L49.586 51.34Z"/><path d="m58.146 26.95-19.85-12.454L53.866 4.117l19.46 11.676L58.146 26.95Z"/></g><defs><clipPath id="oa"><path fill="#fff" transform="translate(.676 .225)" d="M0 0h72.65v72.65H0z"/></clipPath></defs></svg><svg fill="none" viewBox="0 0 74 73" id="gmail" xmlns="http://www.w3.org/2000/svg"><g clip-path="url(#pa)"><path d="M64.462 9.082H9.975v54.487h54.487V9.082Z" fill="#ECEFF1"/><path d="M37.22 42.056 64.466 63.57V21.097L37.22 42.057Z" fill="#CFD8DC"/><path d="M66.734 9.082h-2.27L37.22 30.595 9.976 9.082h-2.27a6.813 6.813 0 0 0-6.811 6.81v40.866c0 3.76 3.051 6.811 6.81 6.811h2.27V21.096L37.22 42.051l27.244-20.96V63.57h2.27c3.76 0 6.81-3.051 6.81-6.81V15.891a6.813 6.813 0 0 0-6.81-6.81Z" fill="#F44336"/></g><defs><clipPath id="pa"><path fill="#fff" transform="translate(.895)" d="M0 0h72.65v72.65H0z"/></clipPath></defs></svg><svg fill="none" viewBox="0 0 74 74" id="google-calendar" xmlns="http://www.w3.org/2000/svg"><g clip-path="url(#qa)"><path d="M66.632 22.165H7.037a2.127 2.127 0 0 1-2.129-2.129V6.982A6.392 6.392 0 0 1 11.293.597h51.083a6.392 6.392 0 0 1 6.385 6.385v13.054a2.127 2.127 0 0 1-2.129 2.129Z" fill="#E3E7EA"/><path d="M62.377.597H36.836v21.568h29.798a2.127 2.127 0 0 0 2.128-2.129V6.982A6.392 6.392 0 0 0 62.377.597Z" fill="#BABAC0"/><path d="m4.824 45.578.001-.005L.591 25.4c-.298-1.915.213-3.831 1.405-5.236a6.42 6.42 0 0 1 4.895-2.256h59.766a6.42 6.42 0 0 1 4.895 2.256c1.193 1.405 1.703 3.32 1.405 5.151l-4.234 20.268 4.234 20.172c.298 1.916-.212 3.832-1.404 5.236a6.418 6.418 0 0 1-4.896 2.256H6.891a6.419 6.419 0 0 1-4.895-2.256C.804 69.586.293 67.671.59 65.841l4.233-20.263Z" fill="#4086F4"/><path d="M4.827 45.572v.005h63.9l4.232-20.262c.298-1.83-.212-3.746-1.404-5.151a6.42 6.42 0 0 0-4.896-2.256H6.893a6.42 6.42 0 0 0-4.895 2.256C.806 21.569.295 23.484.593 25.4l4.234 20.172Z" fill="#4175DF"/><path d="M15.496 13.367a2.128 2.128 0 1 0 0-4.257 2.128 2.128 0 0 0 0 4.257Z" fill="#FFF5F5"/><path d="M58.062 13.367a2.128 2.128 0 1 0 0-4.257 2.128 2.128 0 0 0 0 4.257Z" fill="#E3E7EA"/><path d="M28.26 60.477c-3.6 0-6.829-2.28-8.028-5.677a2.124 2.124 0 0 1 1.297-2.714 2.126 2.126 0 0 1 2.715 1.297 4.269 4.269 0 0 0 4.015 2.837 4.262 4.262 0 0 0 4.257-4.257 4.262 4.262 0 0 0-4.256-4.257h-2.646a2.129 2.129 0 0 1 0-4.257h2.645a4.262 4.262 0 0 0 4.257-4.257 4.262 4.262 0 0 0-4.256-4.256 4.269 4.269 0 0 0-4.016 2.837 2.125 2.125 0 0 1-2.715 1.297 2.124 2.124 0 0 1-1.297-2.715 8.527 8.527 0 0 1 8.027-5.676c4.696 0 8.514 3.818 8.514 8.513a8.494 8.494 0 0 1-2.889 6.386 8.494 8.494 0 0 1 2.89 6.385c0 4.695-3.82 8.514-8.515 8.514Z" fill="#FFF5F5"/><path d="M21.53 39.07a2.125 2.125 0 0 0 2.714-1.298 4.269 4.269 0 0 1 4.015-2.837 4.262 4.262 0 0 1 4.257 4.257 4.262 4.262 0 0 1-4.257 4.257h-2.646a2.128 2.128 0 0 0-2.128 2.128h10.4a8.494 8.494 0 0 0 2.888-6.385c0-4.695-3.818-8.514-8.514-8.514-3.6 0-6.828 2.28-8.027 5.677a2.124 2.124 0 0 0 1.297 2.714Z" fill="#E3E7EA"/><path d="M49.548 60.476a2.127 2.127 0 0 1-2.129-2.128V36.783l-3.076 2.052a2.132 2.132 0 0 1-2.952-.59 2.127 2.127 0 0 1 .59-2.952l6.386-4.257a2.128 2.128 0 0 1 3.31 1.771v25.541a2.127 2.127 0 0 1-2.13 2.128Z" fill="#FFF5F5"/><path d="m44.345 38.836 3.076-2.052v8.794h4.257v-12.77a2.128 2.128 0 0 0-3.309-1.771l-6.385 4.257a2.127 2.127 0 0 0-.59 2.951 2.132 2.132 0 0 0 2.95.59Z" fill="#E3E7EA"/></g><defs><clipPath id="qa"><path fill="#fff" transform="translate(.453 .597)" d="M0 0h72.65v72.65H0z"/></clipPath></defs></svg><svg fill="none" viewBox="0 0 74 74" id="google-drive" xmlns="http://www.w3.org/2000/svg"><g clip-path="url(#ra)"><path d="M37.081 23.547 22.003 49.7h-.043l8.732 10.648-19.593 8.22a2.236 2.236 0 0 1-.852-.808l-9.2-17.038c-.469-.937-.085-1.661.042-2.087L25.751 6.04a2.52 2.52 0 0 1 .767-.724h.043l12.65 3.919-2.13 14.311Z" fill="#59C36A"/><path d="M73.47 49.7 56.39 60.35 52.344 49.7 37.081 23.548l-10.52-18.23c.297-.214.68-.341 1.022-.341h19.139c.426.127 1.277.085 1.831 1.064l24.662 42.594c.17.299.255.682.255 1.065Z" fill="#FFDA2D"/><path d="M48.554 6.043c-.554-.98-1.406-.937-1.832-1.065h-9.64v18.57l15.263 26.154L56.39 60.35l17.08-10.648c0-.384-.085-.767-.255-1.065L48.554 6.043Z" fill="#FDBF00"/><path d="M73.47 49.7c0 .384-.086.767-.214 1.023l-9.2 17.037c-.341.554-1.15 1.108-1.874 1.108H12.12c-.341 0-.724-.128-1.022-.298L21.959 49.7h51.51Z" fill="#4086F4"/><path d="M37.082 68.868h25.102c.724 0 1.533-.554 1.874-1.108l9.2-17.037c.128-.256.214-.64.214-1.022h-36.39v19.167Z" fill="#4175DF"/></g><defs><clipPath id="ra"><path fill="#fff" transform="translate(.82 .597)" d="M0 0h72.65v72.65H0z"/></clipPath></defs></svg><svg fill="none" viewBox="0 0 74 74" id="key" xmlns="http://www.w3.org/2000/svg"><g clip-path="url(#sa)" fill="#4F9CF9"><path d="M66.48 7.444c-9.13-9.13-23.985-9.13-33.115 0-6.236 6.236-8.4 15.428-5.702 23.765L1.301 57.571c-.399.4-.623.94-.623 1.505v12.042c0 1.176.953 2.129 2.128 2.129h12.042c.565 0 1.106-.224 1.506-.624l3.01-3.01c.46-.46.685-1.106.61-1.752l-.376-3.233 4.482-.422a2.129 2.129 0 0 0 1.92-1.92l.422-4.482 3.233.376a2.127 2.127 0 0 0 2.375-2.114V52.1h3.892c.56 0 1.098-.22 1.497-.614l5.288-5.228c8.34 2.703 17.536.538 23.774-5.7 9.13-9.13 9.13-23.985 0-33.115ZM63.47 37.55c-5.373 5.373-13.432 7.05-20.532 4.273a2.129 2.129 0 0 0-2.272.469l-5.618 5.553H29.9a2.129 2.129 0 0 0-2.129 2.129v3.702l-3.02-.35a2.13 2.13 0 0 0-2.364 1.914l-.462 4.894-4.893.46a2.13 2.13 0 0 0-1.915 2.366l.508 4.371-1.66 1.66H4.936v-9.032l26.69-26.69a2.129 2.129 0 0 0 .477-2.28c-2.777-7.1-1.1-15.16 4.273-20.533 7.47-7.47 19.625-7.47 27.095 0 7.47 7.47 7.47 19.624 0 27.094Z"/><path d="M60.458 13.466a6.393 6.393 0 0 0-9.032 0 6.393 6.393 0 0 0 0 9.032 6.393 6.393 0 0 0 9.032 0 6.394 6.394 0 0 0 0-9.032Zm-3.01 6.021c-.83.83-2.181.83-3.011 0-.83-.83-.83-2.18 0-3.01a2.127 2.127 0 0 1 3.01 0 2.127 2.127 0 0 1 0 3.01Z"/></g><defs><clipPath id="sa"><path fill="#fff" transform="translate(.676 .597)" d="M0 0h72.65v72.65H0z"/></clipPath></defs></svg><svg fill="none" viewBox="0 0 74 73" id="outlook" xmlns="http://www.w3.org/2000/svg"><g clip-path="url(#ta)"><path d="M71.057 16.189H39.272a2.271 2.271 0 0 0 0 4.54h25.169L50.492 31.577 40.49 25.215l-2.434 3.833 11.352 7.22a2.273 2.273 0 0 0 2.61-.123l16.77-13.046v29.415H39.271a2.271 2.271 0 0 0 0 4.54h31.785a2.271 2.271 0 0 0 2.27-2.27V18.459a2.271 2.271 0 0 0-2.27-2.27Z" fill="#1976D2"/><path d="M40.72 3.09a2.23 2.23 0 0 0-1.867-.482L2.528 9.42a2.264 2.264 0 0 0-1.852 2.23v49.947c0 1.09.776 2.03 1.852 2.23l36.325 6.81a2.26 2.26 0 0 0 1.866-.481 2.271 2.271 0 0 0 .823-1.748V4.837c0-.676-.3-1.316-.822-1.747Z" fill="#2196F3"/><path d="M21.108 52.514c-6.258 0-11.352-6.112-11.352-13.622S14.85 25.27 21.108 25.27c6.256 0 11.351 6.112 11.351 13.622s-5.095 13.622-11.352 13.622Zm0-22.703c-3.756 0-6.812 4.073-6.812 9.08 0 5.01 3.056 9.082 6.812 9.082 3.755 0 6.81-4.073 6.81-9.081 0-5.008-3.055-9.081-6.81-9.081Z" fill="#FAFAFA"/></g><defs><clipPath id="ta"><path fill="#fff" transform="translate(.676 .295)" d="M0 0h72.65v72.65H0z"/></clipPath></defs></svg><svg fill="none" viewBox="0 0 73 73" id="padlock" xmlns="http://www.w3.org/2000/svg"><g clip-path="url(#ua)" fill="#4F9CF9"><path d="M56.94 26.677h-5.113V15.009C51.827 6.733 44.952 0 36.502 0S21.177 6.733 21.177 15.01v11.668h-5.103c-4.694 0-8.513 3.819-8.513 8.514v28.946c0 4.695 3.819 8.514 8.513 8.514H56.94c4.695 0 8.514-3.82 8.514-8.514V35.19c0-4.694-3.82-8.513-8.514-8.513ZM26.853 15.009c0-5.146 4.328-9.333 9.649-9.333 5.32 0 9.649 4.187 9.649 9.333v11.668H26.853V15.009Zm32.925 49.128a2.841 2.841 0 0 1-2.838 2.838H16.074a2.841 2.841 0 0 1-2.838-2.838V35.19a2.841 2.841 0 0 1 2.838-2.837H56.94a2.841 2.841 0 0 1 2.838 2.837v28.947Z"/><path d="M36.506 40.582a5.25 5.25 0 0 0-2.843 9.663v6.23a2.838 2.838 0 0 0 5.676 0V50.25a5.25 5.25 0 0 0-2.833-9.67Z"/></g><defs><clipPath id="ua"><path fill="#fff" transform="translate(.182)" d="M0 0h72.65v72.65H0z"/></clipPath></defs></svg><svg fill="none" viewBox="0 0 73 73" id="protection" xmlns="http://www.w3.org/2000/svg"><path d="M33.936 42.198a2.27 2.27 0 0 1-1.605-3.875L47.044 23.61a2.27 2.27 0 1 1 3.21 3.21L35.54 41.532a2.26 2.26 0 0 1-1.605.666Z" fill="#FFE492"/><path d="M33.94 42.199a2.261 2.261 0 0 1-1.606-.665l-7.417-7.416a2.27 2.27 0 1 1 3.21-3.21l7.417 7.416a2.27 2.27 0 0 1-1.605 3.875ZM36.651 65.84c-.236 0-.475-.038-.711-.115A35.267 35.267 0 0 1 11.678 32.17a2.271 2.271 0 0 1 4.54 0 30.735 30.735 0 0 0 21.144 29.241 2.27 2.27 0 0 1-.71 4.427Z" fill="#FFE492"/><path d="M13.948 34.442a2.271 2.271 0 0 1-2.27-2.27V16.11a2.271 2.271 0 0 1 4.54 0v16.061a2.27 2.27 0 0 1-2.27 2.27Z" fill="#FFE492"/><path d="M13.946 18.38a2.27 2.27 0 0 1-.31-4.52 71.211 71.211 0 0 0 22.003-6.81 2.27 2.27 0 1 1 2.025 4.064 75.808 75.808 0 0 1-23.403 7.245 2.27 2.27 0 0 1-.315.022ZM36.651 65.84a2.272 2.272 0 0 1-.71-4.428 30.733 30.733 0 0 0 21.143-29.24 2.271 2.271 0 0 1 4.54 0 35.268 35.268 0 0 1-24.262 33.553 2.248 2.248 0 0 1-.71.114Z" fill="#FFE492"/><path d="M59.354 34.442a2.271 2.271 0 0 1-2.27-2.27V16.11a2.271 2.271 0 0 1 4.54 0v16.061a2.27 2.27 0 0 1-2.27 2.27Z" fill="#FFE492"/><path d="M59.358 18.38c-.104 0-.21-.006-.315-.02a75.807 75.807 0 0 1-23.404-7.246 2.27 2.27 0 0 1 2.025-4.064 71.243 71.243 0 0 0 22.003 6.812 2.271 2.271 0 0 1-.309 4.519Z" fill="#FFE492"/></svg><svg fill="none" viewBox="0 0 74 73" id="slack" xmlns="http://www.w3.org/2000/svg"><g clip-path="url(#wa)"><path d="M27.416 38.679c-4.192 0-7.602 3.41-7.602 7.6v18.995c0 4.192 3.41 7.601 7.602 7.601 4.19 0 7.6-3.41 7.6-7.6V46.28c0-4.192-3.41-7.601-7.6-7.601ZM15.561 38.679H8.202c-4.057 0-7.358 3.3-7.358 7.358s3.3 7.36 7.358 7.36 7.36-3.302 7.36-7.36V38.68Z" fill="#FF4340"/><path d="M.82 26.821c0 4.191 3.41 7.601 7.601 7.601h18.995c4.191 0 7.601-3.41 7.601-7.6 0-4.192-3.41-7.602-7.601-7.602H8.421c-4.19 0-7.6 3.41-7.6 7.601ZM27.66 14.963h7.358v-7.36c0-4.057-3.301-7.358-7.358-7.358-4.058 0-7.36 3.301-7.36 7.359 0 4.057 3.302 7.359 7.36 7.359Z" fill="#36C6FF"/><path d="M46.874 34.422c4.191 0 7.601-3.41 7.601-7.601V7.826c0-4.191-3.41-7.6-7.6-7.6-4.192 0-7.602 3.409-7.602 7.6v18.995c0 4.191 3.41 7.6 7.601 7.6ZM58.732 34.422h7.36c4.057 0 7.358-3.3 7.358-7.358s-3.301-7.359-7.359-7.359c-4.057 0-7.359 3.301-7.359 7.359v7.358Z" fill="#0DC46E"/><path d="M73.47 46.28c0-4.191-3.41-7.6-7.6-7.6H46.874c-4.192 0-7.601 3.409-7.601 7.6s3.41 7.601 7.6 7.601H65.87c4.192 0 7.601-3.41 7.601-7.6ZM46.632 58.138h-7.358v7.358c0 4.058 3.3 7.359 7.358 7.359s7.359-3.301 7.359-7.359c0-4.057-3.301-7.358-7.359-7.358Z" fill="#FDCB02"/></g><defs><clipPath id="wa"><path fill="#fff" transform="translate(.82 .225)" d="M0 0h72.65v72.65H0z"/></clipPath></defs></svg><svg fill="none" viewBox="0 0 73 74" id="windows-logo" xmlns="http://www.w3.org/2000/svg"><g clip-path="url(#xa)" fill="#1A3453"><path d="M.142 40.332v21.162l30.212 4.338v-25.5H.142ZM30.354 7.828.142 12.166v21.162h30.212v-25.5ZM72.792 33.327V1.375L37.365 6.46v26.867h35.427ZM37.365 67.199l35.427 5.08V40.332H37.365V67.2Z"/></g><defs><clipPath id="xa"><path fill="#fff" transform="translate(.144 .503)" d="M0 0h72.65v72.65H0z"/></clipPath></defs></svg></svg>