<svg width="1920" height="548" viewBox="0 0 1920 548" fill="none" xmlns="http://www.w3.org/2000/svg">
<g opacity="0.3">
<path d="M648.673 547.273C639.202 547.273 629.983 546.826 621.124 545.934C602.543 544.063 585.377 540.222 570.102 534.516C553.684 528.385 539.284 520.031 527.299 509.687C503.212 488.895 491.161 463.996 479.506 439.915C477.216 435.187 474.849 430.297 472.445 425.553C456.045 393.22 435.255 364.898 408.892 338.968C356.303 287.243 282.344 243.099 195.009 211.31C94.0064 174.547 -14.5879 156.234 -110.772 159.745C-167.304 161.81 -241.999 181.444 -275.382 214.975C-295.193 234.875 -296.791 256.959 -279.999 278.836L-280.332 278.928C-289.137 267.455 -292.973 255.953 -291.731 244.741C-290.591 234.457 -285.198 224.403 -275.697 214.86C-260.587 199.682 -235.668 186.23 -203.633 175.956C-174.032 166.464 -141.063 160.628 -110.794 159.523C-60.4578 157.687 -6.92279 161.762 48.3233 171.637C98.4032 180.59 147.82 193.873 195.199 211.118C282.586 242.925 356.589 287.093 409.208 338.849C435.585 364.796 456.386 393.134 472.797 425.485C475.204 430.229 477.571 435.121 479.857 439.849C491.502 463.912 503.545 488.794 527.6 509.555C550.862 529.635 582.351 541.8 621.186 545.71C674.966 551.125 740.274 539.799 795.879 515.41C876.011 480.266 931.624 429.111 985.408 379.642C994.836 370.971 1004.58 362.005 1014.23 353.347C1039.29 330.865 1073.22 301.732 1113.55 275.778C1154.77 249.25 1196.65 229.759 1241.6 216.19C1269.12 207.884 1298.28 202.288 1328.27 199.559C1355.97 197.036 1385.3 196.88 1415.43 199.09C1467.11 202.883 1522.78 213.597 1585.64 231.842C1709.42 267.77 1833.05 311.378 1953.12 361.459C2067.25 409.059 2179.18 462.921 2285.8 521.545L2285.55 521.708C2064.53 400.183 1828.99 302.725 1585.48 232.04C1447.91 192.105 1338.69 187.13 1241.77 216.386C1143.17 246.148 1074.29 299.859 1014.54 353.468C1004.89 362.124 995.143 371.09 985.716 379.761C931.917 429.247 876.286 480.418 796.099 515.586C770.187 526.952 741.036 535.817 711.801 541.221C696.357 544.076 681.005 545.943 666.166 546.771C660.252 547.107 654.415 547.273 648.673 547.273Z" fill="#FFE492"/>
<path d="M657.934 534.945C633.781 534.945 611.408 532.183 591.414 526.73C569.118 520.65 549.878 511.228 534.226 498.729C532.841 497.621 531.466 496.477 530.14 495.323C506.309 474.622 493.723 450.046 481.555 426.278C479.093 421.475 476.55 416.506 473.971 411.685C458.607 382.98 440.108 357.68 417.409 334.343C414.613 331.47 411.719 328.591 408.799 325.786C355.436 274.506 280.877 230.922 193.182 199.744C91.4504 163.609 -17.4517 146.053 -113.464 150.313C-169.586 152.829 -243.936 172.784 -277.462 206.057C-297.537 225.982 -299.809 248.11 -284.039 270.05L-284.376 270.139C-292.642 258.639 -296.038 247.115 -294.466 235.89C-293.023 225.581 -287.41 215.505 -277.777 205.943C-262.513 190.791 -237.667 177.323 -205.933 166.997C-176.602 157.452 -143.776 151.448 -113.497 150.092C-63.2227 147.862 -9.62904 151.548 45.793 161.044C95.9937 169.647 145.645 182.604 193.365 199.555C281.111 230.75 355.711 274.361 409.106 325.67C412.027 328.476 414.925 331.358 417.721 334.233C440.434 357.585 458.945 382.898 474.315 411.619C476.898 416.44 479.441 421.409 481.903 426.214C494.068 449.967 506.643 474.525 530.441 495.198C531.763 496.347 533.137 497.492 534.519 498.597C566.865 524.434 611.309 534.945 658.047 534.945C658.304 534.945 658.557 534.945 658.813 534.945C658.52 534.943 658.227 534.945 657.934 534.945ZM667.904 534.791C711.355 533.451 756.192 523.419 794.657 508.496C877.629 476.174 937.261 426.252 994.932 377.974C997.307 375.984 999.681 373.998 1002.06 372.013C1007.27 367.654 1013.45 362.494 1019.76 357.292C1048.06 333.964 1082.32 306.822 1121.77 282.391C1163.74 256.396 1205.68 237.105 1249.97 223.415C1277.18 215.012 1305.94 209.093 1335.44 205.822C1362.78 202.79 1391.67 201.934 1421.3 203.275C1472.49 205.593 1527.53 214.381 1589.57 230.142C1650.06 245.486 1699.78 259.929 1746.05 275.596C1811.59 297.812 1874.02 323.409 1926.45 345.517C2048.34 397.064 2167.93 455.596 2281.91 519.487L2281.66 519.648C2167.69 455.765 2048.11 397.238 1926.24 345.698C1873.82 323.592 1811.4 297.999 1745.87 275.789C1699.62 260.127 1649.91 245.688 1589.43 230.349C1454.29 196.013 1346.47 193.871 1250.14 223.613C1150.15 254.516 1078.95 308.887 1020.06 357.424C1013.74 362.626 1007.57 367.784 1002.35 372.145C999.978 374.128 997.603 376.116 995.229 378.106C937.539 426.399 877.885 476.339 794.855 508.685C774.267 516.672 752.359 523.016 729.738 527.54C708.681 531.747 687.924 534.179 667.904 534.791Z" fill="#FFE492"/>
<path d="M668.145 522.897C665.24 522.897 662.352 522.86 659.487 522.783C635.356 522.142 613.024 518.816 593.113 512.892C571.338 506.414 552.472 496.818 537.043 484.369C535.672 483.26 534.306 482.113 532.987 480.959C509.423 460.359 496.314 436.111 483.64 412.665C480.998 407.778 478.265 402.723 475.495 397.819C459.373 369.21 440.386 344.112 417.442 321.091C414.602 318.244 411.664 315.389 408.699 312.607C354.563 261.773 279.403 218.748 191.35 188.182C88.8926 152.674 -20.3173 135.874 -116.161 140.882C-170.124 143.746 -244.259 162.563 -279.507 197.106C-299.871 217.064 -302.835 239.251 -288.08 261.269L-288.421 261.351C-296.152 249.815 -299.102 238.265 -297.196 227.021C-295.445 216.679 -289.597 206.577 -279.818 196.992C-264.392 181.875 -239.627 168.403 -208.197 158.028C-179.142 148.437 -146.466 142.271 -116.194 140.664C-65.9783 138.042 -12.326 141.335 43.2682 150.453C93.5935 158.708 143.476 171.337 191.533 187.993C279.638 218.578 354.838 261.628 409.007 312.49C411.971 315.275 414.914 318.13 417.753 320.981C440.708 344.016 459.706 369.129 475.835 397.753C478.605 402.66 481.339 407.714 483.98 412.601C496.651 436.034 509.75 460.264 533.284 480.84C534.603 481.994 535.962 483.139 537.332 484.244C600.027 534.826 711.135 529.396 793.433 501.577C879.867 472.103 944.101 423.117 1006.22 375.744L1006.86 375.257C1012.87 370.665 1019.1 365.919 1025.29 361.232C1090.63 311.79 1162.45 260.979 1258.33 230.633C1285.25 222.131 1313.62 215.888 1342.63 212.078C1369.62 208.534 1398.07 206.977 1427.19 207.453C1477.97 208.28 1532.37 215.144 1593.51 228.436C1657.76 242.355 1706.12 255.149 1750.29 269.923C1813.23 291.014 1874.19 317.665 1927.98 341.18C2047.74 393.817 2165.51 453.112 2278.03 517.416L2277.77 517.574C2165.27 453.277 2047.51 393.988 1927.76 341.356C1873.98 317.846 1813.03 291.199 1750.11 270.114C1705.95 255.345 1657.62 242.555 1593.39 228.641C1460.86 199.829 1354.45 200.523 1258.5 230.824C1162.68 261.15 1090.89 311.94 1025.57 361.364C1019.38 366.051 1013.16 370.799 1007.14 375.389L1006.51 375.876C975.549 399.483 943.54 423.894 908.974 445.698C870.128 470.201 832.392 488.541 793.609 501.764C753.033 515.479 708.834 522.897 668.145 522.897Z" fill="#FFE492"/>
<path d="M2273.89 515.497C2162.85 450.787 2046.91 390.736 1929.29 337.014C1924.31 334.756 1919.32 332.486 1914.31 330.21C1863.37 307.047 1810.69 283.097 1754.36 264.438C1699.71 246.387 1644.32 235.349 1597.35 226.934C1467.69 203.56 1362.69 207.088 1266.88 238.035C1168.54 269.897 1092.33 322.798 1031.1 365.306C1027.43 367.857 1023.76 370.413 1020.09 372.971C1017.37 374.86 1014.66 376.749 1011.94 378.635C977.081 402.863 945.368 424.525 910.329 444.29C870.3 466.87 831.718 483.406 792.37 494.847C755.495 505.569 716.103 511.242 679.463 511.244C672.787 511.244 666.21 511.057 659.747 510.676C636.151 509.287 614.306 505.384 594.82 499.075C573.558 492.192 555.066 482.413 539.849 470.011C538.49 468.899 537.134 467.75 535.822 466.594C512.537 446.102 498.918 422.195 485.75 399.077C482.914 394.097 479.979 388.946 477.011 383.947C460.12 355.429 440.642 330.531 417.471 307.831C414.587 305.007 411.601 302.178 408.596 299.42C353.684 249.033 277.926 206.567 189.517 176.611C86.3347 141.73 -23.1792 125.689 -118.854 131.439C-184.261 135.448 -251.144 158.751 -281.504 188.106C-302.187 208.105 -305.855 230.363 -292.118 252.474L-292.463 252.551C-299.655 240.974 -302.162 229.388 -299.912 218.115C-297.842 207.736 -291.752 197.601 -281.815 187.99C-266.229 172.917 -241.544 159.445 -210.429 149.032C-181.652 139.401 -149.145 133.075 -118.891 131.221C-68.734 128.205 -15.0268 131.109 40.7396 139.848C91.1859 147.755 141.306 160.059 189.7 176.417C278.165 206.391 353.962 248.881 408.908 299.299C411.916 302.059 414.902 304.89 417.786 307.714C440.972 330.428 460.457 355.338 477.359 383.87C480.327 388.871 483.262 394.02 486.098 399.002C499.259 422.107 512.871 445.999 536.126 466.467C537.438 467.62 538.79 468.767 540.146 469.877C605.596 523.224 716.84 516.561 792.212 494.646C882.138 468.499 950.952 420.681 1011.67 378.49C1014.38 376.601 1017.1 374.712 1019.81 372.826C1023.48 370.268 1027.15 367.712 1030.83 365.161C1065.78 340.897 1100.29 317.319 1138.24 295.591C1181.87 270.604 1223.9 251.714 1266.71 237.841C1293.35 229.236 1321.31 222.67 1349.82 218.326C1376.47 214.265 1404.48 212.011 1433.09 211.623C1483.54 210.941 1537.31 215.881 1597.46 226.722C1644.45 235.142 1699.86 246.184 1754.54 264.246C1810.89 282.912 1863.58 306.869 1914.54 330.036C1919.54 332.312 1924.54 334.582 1929.52 336.84C2047.14 390.566 2163.1 450.624 2274.15 515.341L2273.89 515.497Z" fill="#FFE492"/>
<path d="M2270.01 513.425C2158.33 447.063 2044.22 386.249 1930.82 332.674C1924.04 329.469 1917.1 326.165 1910.38 322.971C1862.31 300.094 1812.6 276.439 1758.61 258.764C1704.69 241.178 1648.84 231.941 1601.31 225.227C1474.81 207.182 1371.2 213.544 1275.26 245.248C1183.75 275.598 1112.05 321.236 1042.72 365.371L1035.1 370.216C1029.09 374.044 1022.87 378 1016.74 381.881C947.34 425.763 877.863 466.891 791.132 487.927C770.086 493.032 748.475 496.569 726.894 498.447C703.719 500.461 681.208 500.49 659.982 498.531C636.928 496.402 615.578 491.931 596.525 485.241C575.79 477.961 557.668 468.004 542.667 455.651C541.315 454.532 539.97 453.381 538.67 452.227C515.671 431.856 501.561 408.302 487.916 385.522C484.871 380.439 481.72 375.182 478.54 370.078C460.864 341.647 440.903 316.95 417.512 294.576C414.588 291.78 411.558 288.973 408.505 286.237C352.82 236.297 276.465 194.39 187.693 165.044C83.7814 130.795 -26.0404 115.509 -121.55 122.005C-186.36 126.507 -252.939 149.973 -283.453 179.073C-304.48 199.123 -308.874 221.467 -296.159 243.689L-296.508 243.762C-303.161 232.134 -305.217 220.505 -302.619 209.199C-300.223 198.775 -293.88 188.601 -283.768 178.959C-268.012 163.937 -243.416 150.478 -212.631 140.034C-184.139 130.368 -151.808 123.89 -121.594 121.79C-71.4962 118.382 -17.734 120.894 38.2083 129.254C88.7791 136.814 139.13 148.789 187.865 164.852C276.689 194.214 353.087 236.147 408.806 286.116C411.858 288.854 414.892 291.663 417.816 294.459C441.221 316.845 461.194 341.555 478.877 370C482.057 375.105 485.208 380.364 488.253 385.447C501.89 408.214 515.993 431.757 538.967 452.104C540.264 453.253 541.608 454.402 542.957 455.521C606.832 508.126 712.964 506.649 790.989 487.724C877.651 466.706 947.098 425.593 1016.47 381.731C1022.6 377.85 1028.82 373.895 1034.83 370.066L1042.45 365.221C1076.48 343.558 1111.67 321.155 1149.89 300.315C1193.18 276.712 1234.13 258.636 1275.08 245.054C1301.44 236.341 1329.01 229.451 1357 224.577C1383.32 219.994 1410.9 217.04 1438.97 215.796C1489.21 213.57 1542.33 216.586 1601.39 225.011C1648.94 231.729 1704.82 240.968 1758.77 258.57C1812.8 276.252 1862.52 299.914 1910.61 322.797C1917.32 325.991 1924.26 329.293 1931.05 332.501C2044.45 386.079 2158.58 446.898 2270.26 513.266L2270.01 513.425Z" fill="#FFE492"/>
<path d="M2266.12 511.349C2155.41 444.25 2043.11 382.674 1932.35 328.333C1924.03 324.25 1915.49 320.004 1907.24 315.898C1861.76 293.268 1814.73 269.868 1762.85 253.091C1709.19 235.806 1653.08 228.443 1605.27 223.521C1482.28 210.663 1380.07 219.86 1283.63 252.462C1199.47 281.033 1130.37 321.525 1063.54 360.682C1056.51 364.803 1049.24 369.063 1042.15 373.19C1033.83 378.038 1027.47 381.721 1021.54 385.128C989.769 403.369 951.942 424.372 912.246 441.842C870.179 460.353 830.157 473.164 789.89 481.01C768.715 485.135 747.196 487.737 725.927 488.741C703.089 489.82 680.976 489.027 660.209 486.384C637.708 483.52 616.856 478.481 598.225 471.408C578.021 463.738 560.276 453.603 545.481 441.289C544.147 440.173 542.81 439.019 541.513 437.861C518.818 417.627 504.235 394.435 490.129 372.008C486.857 366.806 483.475 361.428 480.063 356.205C461.593 327.853 441.144 303.359 417.544 281.317C414.576 278.546 411.502 275.765 408.406 273.051C351.947 223.558 274.992 182.21 185.861 153.474C81.2272 119.855 -28.9023 105.328 -124.244 112.566C-178.493 116.775 -249.348 136.164 -285.351 169.99C-306.756 190.102 -311.893 212.547 -300.201 234.897L-300.549 234.963C-306.665 223.276 -308.262 211.596 -305.302 200.246C-302.568 189.77 -295.962 179.551 -285.659 169.872C-269.735 154.911 -245.23 141.474 -214.786 131.009C-186.58 121.314 -154.443 114.688 -124.288 112.348C-74.2482 108.549 -20.4274 110.668 35.6834 118.651C86.3752 125.862 136.961 137.512 186.033 153.28C275.215 182.032 352.215 223.404 408.707 272.925C411.803 275.64 414.88 278.424 417.848 281.198C441.459 303.251 461.919 327.759 480.401 356.123C483.815 361.349 487.197 366.727 490.469 371.929C504.565 394.345 519.144 417.523 541.813 437.736C543.11 438.892 544.444 440.043 545.778 441.157C598.917 485.391 690.133 500.21 789.776 480.797C880.014 463.217 953.624 423.815 1021.29 384.965C1027.22 381.558 1033.57 377.875 1041.89 373.027C1048.98 368.9 1056.25 364.64 1063.28 360.519C1096.18 341.242 1130.2 321.309 1166.49 302.644C1207.51 281.535 1245.78 265.056 1283.46 252.266C1309.57 243.438 1336.73 236.225 1364.19 230.827C1390.2 225.713 1417.35 222.061 1444.87 219.968C1494.98 216.159 1547.47 217.249 1605.34 223.298C1653.17 228.225 1709.31 235.591 1763.02 252.891C1814.93 269.678 1861.98 293.085 1907.47 315.722C1915.72 319.827 1924.26 324.074 1932.58 328.157C2043.35 382.504 2155.66 444.085 2266.38 511.188L2266.12 511.349Z" fill="#FFE492"/>
<path d="M2262.24 509.277C2152.48 441.436 2042.01 379.096 1933.87 323.994C1924.67 319.308 1915.23 314.388 1906.09 309.631C1862.56 286.97 1817.56 263.539 1767.09 247.418C1713.39 230.34 1657.16 224.892 1609.23 221.814C1491.81 214.072 1388.04 226.457 1292 259.675C1215.53 286.246 1149.98 321.791 1086.58 356.167C1073.78 363.11 1060.54 370.291 1047.67 377.135C1039.79 381.324 1032.82 385.002 1026.33 388.379C996.173 404.066 956.055 424.18 913.186 440.617C870.112 457.132 829.372 468.083 788.639 474.095C744.213 480.653 699.874 480.702 660.42 474.238C638.484 470.644 618.126 465.039 599.912 457.579C580.248 449.524 562.88 439.213 548.286 426.936C546.964 425.818 545.637 424.662 544.348 423.504C521.975 403.423 506.938 380.613 492.399 358.555C488.882 353.219 485.247 347.703 481.579 342.343C462.299 314.066 441.363 289.77 417.572 268.069C414.561 265.322 411.442 262.566 408.302 259.876C351.07 210.83 273.518 170.039 184.028 141.917C78.6723 108.929 -31.765 95.1599 -126.942 103.14C-191.443 108.665 -255.846 131.867 -287.195 160.872C-309.011 181.056 -314.906 203.618 -304.244 226.118L-304.595 226.177C-310.168 214.42 -311.304 202.678 -307.974 191.28C-304.896 180.744 -298.007 170.472 -287.503 160.751C-271.41 145.861 -247.001 132.455 -216.912 121.981C-189.003 112.267 -157.067 105.495 -126.993 102.92C-77.012 98.7283 -23.1326 100.459 33.1505 108.06C83.9668 114.924 134.787 126.247 184.196 141.718C273.738 169.858 351.334 210.671 408.603 259.748C411.743 262.438 414.861 265.196 417.876 267.946C441.678 289.66 462.625 313.967 481.916 342.257C485.584 347.617 489.219 353.136 492.736 358.472C507.268 380.518 522.297 403.318 544.648 423.379C545.938 424.536 547.26 425.688 548.583 426.806C600.81 470.754 690.516 488.351 788.551 473.882C877.924 460.689 955.535 424.911 1026.09 388.214C1032.57 384.837 1039.55 381.161 1047.42 376.972C1060.29 370.128 1073.53 362.949 1086.33 356.006C1149.74 321.623 1215.31 286.07 1291.82 259.488C1317.7 250.535 1344.46 243 1371.37 237.087C1397.1 231.434 1423.81 227.082 1450.75 224.152C1500.84 218.704 1552.7 217.87 1609.27 221.599C1657.22 224.678 1713.5 230.129 1767.26 247.227C1817.76 263.358 1862.78 286.798 1906.33 309.468C1915.46 314.225 1924.91 319.143 1934.11 323.829C2042.25 378.936 2152.74 441.28 2262.5 509.125L2262.24 509.277Z" fill="#FFE492"/>
<path d="M2258.35 507.204C2149.58 438.614 2040.92 375.515 1935.4 319.655C1925.71 314.522 1915.73 309.087 1906.09 303.83C1864.15 280.978 1820.78 257.346 1771.33 241.745C1717.41 224.812 1661.13 221.306 1613.19 220.108C1500.21 217.079 1397.88 232.381 1300.38 266.889C1231.99 291.205 1171.04 321.98 1112.08 351.74C1091.81 361.974 1072.66 371.64 1053.19 381.077C1045.27 384.919 1038.05 388.37 1031.13 391.626C986.446 412.616 949.271 427.792 914.133 439.385C870.051 453.929 828.596 463.02 787.398 467.177C771.415 468.788 755.491 469.591 739.857 469.591C712.142 469.591 685.325 467.073 660.637 462.085C615.958 453.057 579.105 436.399 551.101 412.574C549.782 411.445 548.467 410.289 547.192 409.136C525.16 389.229 509.701 366.824 494.752 345.154C490.963 339.663 487.05 333.988 483.104 328.47C463 300.259 441.572 276.166 417.61 254.81C414.554 252.087 411.392 249.355 408.208 246.689C350.203 198.09 272.049 157.858 182.2 130.346C76.1227 97.9928 -34.6187 84.9784 -129.63 93.7002C-194.399 99.7693 -256.944 122.531 -288.964 151.69C-311.223 171.958 -317.899 194.654 -308.277 217.326L-308.633 217.381C-313.656 205.542 -314.323 193.729 -310.611 182.271C-307.174 171.665 -299.997 161.337 -289.268 151.569C-273.007 136.761 -248.704 123.399 -218.981 112.925C-191.373 103.195 -159.661 96.2911 -129.685 93.4822C-79.7631 88.899 -25.825 90.2374 30.6266 97.4601C81.5675 103.978 132.618 114.976 182.368 130.148C272.269 157.678 350.466 197.932 408.508 246.56C411.692 249.228 414.854 251.96 417.914 254.685C441.891 276.051 463.329 300.158 483.441 328.379C487.387 333.898 491.304 339.575 495.089 345.066C510.031 366.725 525.482 389.121 547.496 409.01C548.771 410.162 550.082 411.317 551.401 412.444C603.694 456.938 689.689 476.807 787.335 466.956C880.288 457.579 962.619 423.526 1030.9 391.45C1037.82 388.194 1045.04 384.745 1052.96 380.904C1072.43 371.466 1091.58 361.802 1111.85 351.568C1170.81 321.802 1231.78 291.022 1300.19 266.698C1325.88 257.606 1352.24 249.747 1378.56 243.337C1404.05 237.129 1430.32 232.077 1456.64 228.324C1506.84 221.167 1558.06 218.407 1613.21 219.886C1661.19 221.083 1717.51 224.595 1771.5 241.547C1820.99 257.159 1864.37 280.802 1906.33 303.663C1915.98 308.919 1925.95 314.355 1935.64 319.486C2041.16 375.349 2149.83 438.456 2258.61 507.05L2258.35 507.204Z" fill="#FFE492"/>
<path d="M2254.47 505.13C2145.15 434.81 2041.28 372.721 1936.93 315.314C1926.97 309.837 1917.17 304.244 1906.79 298.322C1866.22 275.173 1824.26 251.237 1775.58 236.072C1720.98 219.146 1662.23 217.737 1617.15 218.402C1509.31 219.784 1408.43 238.005 1308.75 274.105C1248.94 295.87 1193.72 322.006 1140.32 347.284C1112.25 360.569 1085.74 373.115 1058.71 385.022C1050.68 388.56 1043.23 391.782 1035.92 394.875C990.63 414.018 952.231 427.768 915.071 438.149C869.967 450.75 827.797 457.981 786.152 460.258C764.754 461.426 743.503 461.206 722.988 459.604C701.268 457.907 680.361 454.651 660.85 449.929C617.603 439.461 581.626 422.064 553.915 398.217C552.607 397.085 551.303 395.928 550.035 394.774C528.373 375.072 512.526 353.094 497.2 331.84C493.111 326.169 488.883 320.305 484.629 314.603C463.681 286.454 441.771 262.561 417.643 241.558C414.54 238.859 411.333 236.151 408.113 233.51C349.335 185.358 270.584 145.685 180.375 118.782C97.1142 94.0544 11.2515 81.1523 -67.4847 81.1523C-89.7436 81.1523 -111.416 82.1825 -132.32 84.2672C-196.308 90.7744 -258.461 113.618 -290.668 142.464C-313.399 162.827 -320.885 185.677 -312.315 208.542L-312.674 208.591C-317.148 196.659 -317.334 184.765 -313.231 173.241C-309.427 162.558 -301.938 152.161 -290.975 142.341C-274.546 127.625 -250.356 114.318 -221.015 103.855C-193.318 93.9774 -162.669 87.129 -132.386 84.0515C-82.5218 79.0764 -28.5251 80.0252 28.0987 86.867C79.1605 93.0352 130.45 103.705 180.537 118.582C270.796 145.5 349.595 185.195 408.41 233.376C411.634 236.017 414.844 238.727 417.947 241.428C442.086 262.442 464.008 286.347 484.966 314.508C489.22 320.21 493.452 326.074 497.541 331.747C512.86 352.992 528.699 374.962 550.343 394.649C551.611 395.8 552.915 396.958 554.219 398.087C606.04 442.68 690.561 465.257 786.123 460.035C882.82 454.75 970.302 422.337 1035.72 394.69C1043.02 391.598 1050.47 388.375 1058.5 384.839C1085.53 372.937 1112.03 360.389 1140.1 347.106C1193.51 321.826 1248.73 295.683 1308.56 273.911C1359.89 255.325 1410.25 241.78 1462.53 232.499C1512.96 223.549 1563.54 218.864 1617.15 218.177C1647.74 217.726 1672.7 218.51 1695.69 220.641C1725.38 223.392 1751.57 228.374 1775.75 235.872C1824.48 251.05 1866.46 274.999 1907.05 298.159C1917.43 304.081 1927.23 309.672 1937.18 315.149C2041.54 372.558 2145.42 434.652 2254.74 504.976L2254.47 505.13Z" fill="#FFE492"/>
<path d="M2250.58 503.055C2142.27 431.965 2040.17 369.136 1938.45 310.972C1928.39 305.218 1918.47 299.289 1907.97 293.013C1868.61 269.498 1827.91 245.18 1779.82 230.396C1724.77 213.549 1666.09 214.223 1621.11 216.69C1519.35 222.081 1419.91 243.221 1317.12 281.313C1266.48 300.172 1218.26 321.754 1171.63 342.627C1134.76 359.126 1099.95 374.712 1064.23 388.957C1056.16 392.18 1048.24 395.262 1040.71 398.114C995.335 415.294 954.544 427.98 916.009 436.9C869.868 447.581 826.984 452.957 784.907 453.331C763.498 453.52 742.331 452.358 722.006 449.873C700.7 447.266 680.196 443.191 661.063 437.759C619.3 425.9 584.195 407.763 556.726 383.85C555.436 382.72 554.139 381.56 552.875 380.4C531.62 360.938 515.429 339.424 499.769 318.619C495.339 312.733 490.755 306.644 486.15 300.725C464.345 272.629 441.947 248.938 417.676 228.294C414.529 225.619 411.279 222.936 408.014 220.318C348.463 172.613 269.111 133.499 178.544 107.206C71.0268 76.1232 -40.3338 64.6233 -135.016 74.8244C-198.176 81.7476 -259.915 104.65 -292.301 133.169C-315.546 153.639 -323.863 176.661 -316.359 199.749L-316.718 199.791C-320.632 187.756 -320.331 175.769 -315.821 164.166C-311.633 153.395 -303.825 142.923 -292.605 133.043C-276.015 118.433 -251.946 105.192 -223 94.751C-195.622 84.8758 -165.222 77.9107 -135.082 74.6065C-85.2731 69.2418 -31.2214 69.7965 25.571 76.2597C76.7574 82.0844 128.277 92.4286 178.701 107.006C269.324 133.312 348.719 172.45 408.304 220.184C411.572 222.801 414.826 225.487 417.973 228.164C442.258 248.819 464.664 272.521 486.479 300.628C491.089 306.547 495.669 312.636 500.102 318.525C515.755 339.321 531.939 360.826 553.179 380.275C554.443 381.433 555.74 382.593 557.026 383.72C609.393 429.305 690.32 453.952 784.899 453.106C861.642 452.424 942.866 434.888 1040.52 397.923C1048.04 395.07 1055.95 391.99 1064.02 388.767C1099.73 374.525 1134.55 358.944 1171.4 342.445C1218.04 321.569 1266.27 299.983 1316.93 281.119C1368.75 261.913 1418.3 247.375 1468.42 236.67C1519.18 225.826 1569.12 219.215 1621.08 216.464C1666.1 213.991 1724.85 213.32 1779.99 230.193C1828.13 244.995 1868.85 269.325 1908.23 292.85C1918.73 299.126 1928.65 305.052 1938.71 310.805C2040.43 368.971 2142.53 431.804 2250.85 502.899L2250.58 503.055Z" fill="#FFE492"/>
<path d="M2246.7 500.981C2139.39 429.118 2039.07 365.545 1939.98 306.633C1929.93 300.652 1919.99 294.438 1909.48 287.858C1871.24 263.922 1831.69 239.173 1784.07 224.723C1728.5 207.938 1669.91 210.7 1625.08 214.982C1529.32 223.953 1434.13 247.322 1325.5 288.527C1284.75 304.051 1244.93 321.08 1206.43 337.549C1159.66 357.55 1115.49 376.444 1069.75 392.899C1061.51 395.867 1053.35 398.715 1045.51 401.361C999.316 416.934 957.265 428.152 916.949 435.654C894.368 439.856 872.076 442.901 850.693 444.704C827.884 446.625 805.332 447.2 783.663 446.412C739.699 444.812 698.522 437.807 661.281 425.594C621.061 412.403 586.832 393.529 559.546 369.49C558.263 368.352 556.977 367.19 555.721 366.036C534.92 346.86 518.439 325.857 502.504 305.548C497.679 299.399 492.692 293.042 487.676 286.856C464.992 258.807 442.107 235.316 417.712 215.039C414.52 212.387 411.223 209.728 407.918 207.137C347.593 159.876 267.644 121.321 176.718 95.6427C68.4825 65.1959 -43.1822 54.4533 -137.707 65.3918C-238.918 77.2856 -337.542 128.676 -320.395 190.963L-320.758 190.998C-325.048 175.417 -322.535 160.067 -313.29 145.371C-304.848 131.949 -290.995 119.318 -272.114 107.832C-254.56 97.1506 -233.499 87.9292 -209.522 80.4226C-186.717 73.2836 -161.908 68.0092 -137.78 65.1738C-88.0299 59.4173 -33.9196 59.5824 23.045 65.6669C74.356 71.1461 126.11 81.1644 176.872 95.4446C267.849 121.141 347.846 159.717 408.207 207.004C411.516 209.598 414.813 212.257 418.008 214.912C442.414 235.197 465.311 258.701 488.006 286.761C493.022 292.947 498.009 299.305 502.834 305.455C518.765 325.758 535.239 346.753 556.028 365.917C557.281 367.071 558.564 368.233 559.846 369.369C612.289 415.567 691.784 442.848 783.685 446.194C861.487 449.023 947.071 434.298 1045.33 401.172C1053.17 398.526 1061.32 395.68 1069.56 392.712C1115.29 376.262 1159.46 357.37 1206.22 337.37C1244.73 320.9 1284.55 303.868 1325.3 288.342C1433.98 247.12 1529.21 223.741 1625.02 214.764C1655.14 211.887 1680.08 210.967 1703.52 211.872C1733.47 213.027 1759.87 217.166 1784.23 224.525C1831.9 238.99 1871.47 263.755 1909.74 287.704C1920.25 294.281 1930.18 300.496 1940.24 306.475C2039.33 365.391 2139.66 428.966 2246.96 500.834L2246.7 500.981Z" fill="#FFE492"/>
<path d="M2242.81 498.909C2136.53 426.262 2037.97 361.949 1941.51 302.293C1931.53 296.12 1921.67 289.655 1911.23 282.807C1874.02 258.414 1835.54 233.188 1788.31 219.049C1731.53 202.123 1670.22 207.646 1629.04 213.273C1517.27 228.356 1417.11 263.424 1333.87 295.742C1303.96 307.405 1274.12 319.758 1245.25 331.705C1187.36 355.671 1132.68 378.308 1075.28 396.843C1066.83 399.571 1058.44 402.184 1050.31 404.612C1003.22 418.654 959.904 428.402 917.899 434.407C870.282 441.216 824.705 442.928 782.426 439.494C738.992 435.965 698.307 427.195 661.506 413.426C622.905 398.985 589.552 379.373 562.365 355.134C561.097 353.996 559.818 352.832 558.569 351.674C538.285 332.85 521.599 312.424 505.459 292.669C500.171 286.195 494.701 279.502 489.205 272.989C465.297 244.587 442.591 221.964 417.753 201.786C414.518 199.158 411.18 196.525 407.827 193.956C346.722 147.144 266.172 109.149 174.887 84.0777C65.9335 54.2693 -46.0391 44.2818 -140.402 55.9577C-241.976 68.6925 -338.586 119.385 -324.435 182.179L-324.798 182.207C-328.308 166.628 -325.271 151.294 -315.773 136.631C-307.068 123.196 -293.133 110.551 -274.352 99.0513C-256.838 88.3263 -235.887 79.0367 -212.078 71.4354C-189.409 64.1974 -164.647 58.771 -140.476 55.7398C-90.7805 49.5914 -36.6152 49.3669 20.5179 55.0706C71.9534 60.2041 123.942 69.8967 175.041 83.8774C266.381 108.962 346.975 146.979 408.109 193.819C411.462 196.391 414.803 199.026 418.042 201.654C442.895 221.84 465.609 244.477 489.527 272.89C495.023 279.403 500.494 286.098 505.781 292.572C521.917 312.32 538.6 332.74 558.869 351.555C560.119 352.713 561.394 353.875 562.661 355.013C615.511 402.131 693.573 432.056 782.47 439.276C862.199 445.753 949.754 434.347 1050.14 404.413C1058.27 401.988 1066.67 399.377 1075.1 396.649C1132.49 378.118 1187.16 355.486 1245.05 331.522C1273.91 319.576 1303.75 307.22 1333.67 295.555C1389.64 273.825 1436.2 257.771 1480.2 245.031C1531.98 230.036 1580.64 219.577 1628.95 213.057C1658.41 209.033 1684.08 207.21 1707.43 207.488C1737.51 207.844 1764.02 211.56 1788.47 218.851C1835.77 233.008 1874.26 258.248 1911.49 282.657C1921.94 289.503 1931.8 295.968 1941.77 302.137C2038.24 361.795 2136.8 426.112 2243.09 498.761L2242.81 498.909Z" fill="#FFE492"/>
<path d="M2238.93 496.832C2133.67 423.399 2036.88 358.345 1943.04 297.949C1933.2 291.615 1923.46 284.925 1913.15 277.841C1876.92 252.957 1839.47 227.226 1792.56 213.373C1735.16 196.486 1674.01 204.25 1633 211.561C1531.74 229.46 1441.41 263.541 1342.25 302.952C1324.36 310.087 1306.27 317.45 1288.78 324.574C1221.49 351.967 1151.92 380.292 1080.8 400.782C1072.16 403.274 1063.51 405.654 1055.1 407.855C1007.69 420.253 961.846 428.764 918.841 433.151C870.124 438.122 823.811 437.926 781.176 432.572C738.351 427.194 698.16 416.656 661.718 401.251C624.84 385.661 592.355 365.314 565.167 340.776C563.911 339.635 562.643 338.469 561.401 337.311C541.729 318.927 524.937 299.166 508.698 280.056C502.846 273.17 496.797 266.051 490.718 259.123C465.876 230.75 442.698 208.321 417.775 188.535C414.503 185.937 411.117 183.326 407.717 180.777C345.85 134.406 264.707 96.9698 173.055 72.5106C63.3869 43.3405 -48.8897 34.1103 -143.099 46.5215C-241.449 59.6195 -339.842 108.533 -328.48 173.39L-328.843 173.412C-331.573 157.833 -328.011 142.516 -318.261 127.886C-309.296 114.435 -295.277 101.78 -276.598 90.2667C-242.134 69.028 -193.505 53.0044 -143.18 46.3035C-93.5432 39.7655 -39.3193 39.1491 17.986 44.472C69.5461 49.2621 121.766 58.6267 173.201 72.3081C264.905 96.7805 346.096 134.241 408.003 180.634C411.407 183.186 414.792 185.796 418.068 188.396C443.002 208.193 466.191 230.631 491.041 259.015C497.119 265.945 503.172 273.064 509.024 279.95C525.259 299.056 542.047 318.813 561.709 337.188C562.947 338.345 564.215 339.51 565.472 340.65C619.864 389.745 694.478 421.455 781.246 432.354C861.591 442.445 953.675 434.135 1054.95 407.653C1063.35 405.451 1071.99 403.074 1080.63 400.584C1151.73 380.101 1221.29 351.78 1288.56 324.391C1306.06 317.268 1324.15 309.904 1342.04 302.769C1385.44 285.518 1435.95 265.73 1486.08 249.208C1538.52 231.928 1586.54 219.545 1632.89 211.352C1662.07 206.15 1687.74 203.451 1711.35 203.103C1741.12 202.663 1768.49 206.053 1792.71 213.177C1813.72 219.382 1834.87 228.643 1857.37 241.491C1877.23 252.834 1895.63 265.474 1913.42 277.696C1923.72 284.778 1933.46 291.468 1943.3 297.799C2037.15 358.197 2133.94 423.254 2239.2 496.688L2238.93 496.832Z" fill="#FFE492"/>
<path d="M2235.04 494.756C2130.82 420.531 2035.8 354.735 1944.57 293.608C1934.9 287.136 1925.33 280.244 1915.2 272.949C1879.92 247.547 1843.44 221.281 1796.8 207.701C1753.22 195.05 1700.93 195.754 1636.96 209.854C1547.51 229.457 1467.56 262.246 1382.9 296.963C1372.36 301.287 1361.47 305.755 1350.62 310.169C1346.37 311.901 1342.12 313.638 1337.88 315.373C1257.22 348.325 1173.81 382.4 1086.32 404.726C1077.47 406.984 1068.59 409.131 1059.9 411.103C1011.45 422.094 964.307 429.09 919.797 431.895C869.955 435.034 822.898 432.934 779.941 425.652C737.783 418.504 698.087 406.198 661.956 389.076C626.935 372.48 595.322 351.4 567.992 326.417C566.746 325.275 565.49 324.106 564.255 322.946C545.33 305.139 528.593 286.174 512.401 267.835C505.847 260.408 499.064 252.727 492.253 245.251C466.451 216.898 442.803 194.662 417.822 175.277C414.502 172.701 411.077 170.117 407.632 167.592C344.981 121.67 263.237 84.7907 171.226 60.9435C60.8473 32.4141 -51.7408 23.9389 -145.793 37.0853C-242.336 50.6918 -340.59 100.006 -332.519 164.603L-332.885 164.62C-334.831 149.039 -330.749 133.74 -320.746 119.147C-311.516 105.681 -297.417 93.0105 -278.837 81.4887C-244.52 60.2061 -196.059 43.9447 -145.877 36.8718C-96.2953 29.9419 -42.0165 28.9337 15.4574 33.878C67.1421 38.3203 119.6 47.359 171.373 60.741C263.435 84.6036 345.23 121.503 407.907 167.449C411.351 169.974 414.785 172.563 418.104 175.138C443.096 194.534 466.759 216.777 492.568 245.141C499.383 252.617 506.162 260.3 512.72 267.727C528.904 286.062 545.642 305.022 564.559 322.822C565.794 323.982 567.047 325.149 568.293 326.292C623.865 377.09 697.083 411.372 780.036 425.434C861.924 439.315 956.038 434.422 1059.77 410.892C1068.45 408.919 1077.33 406.775 1086.17 404.519C1173.64 382.201 1257.03 348.133 1337.67 315.186C1341.92 313.449 1346.16 311.714 1350.41 309.982C1361.26 305.568 1372.15 301.099 1382.69 296.778C1467.37 262.054 1547.35 229.256 1636.83 209.645C1665.73 203.274 1691.39 199.701 1715.27 198.717C1745.16 197.486 1772.64 200.443 1796.96 207.5C1817.85 213.583 1838.73 222.886 1860.81 235.942C1880.28 247.461 1898.18 260.346 1915.48 272.806C1925.62 280.099 1935.18 286.989 1944.84 293.459C2036.08 354.588 2131.1 420.386 2235.32 494.613L2235.04 494.756Z" fill="#FFE492"/>
<path d="M2231.16 492.684C2136.03 423.518 2040.12 355.078 1946.09 289.268C1936.52 282.607 1927.03 275.451 1916.99 267.876C1884.33 243.234 1847.3 215.305 1801.05 202.029C1756.95 189.4 1704.58 191.401 1640.92 208.144C1565.23 227.987 1498.24 257.164 1427.33 288.053C1405.12 297.726 1382.15 307.731 1358.99 317.382C1318.56 334.264 1274.82 352.128 1228.97 368.398C1179.87 385.824 1135.01 398.995 1091.83 408.667C1082.76 410.699 1073.63 412.612 1064.68 414.349C1015.2 423.954 966.785 429.42 920.768 430.595C869.827 431.894 822.026 427.905 778.688 418.73C698.659 401.577 628.713 365.688 570.795 312.059C569.561 310.914 568.315 309.743 567.087 308.583C549.123 291.562 532.678 273.606 516.777 256.239C509.291 248.066 501.553 239.613 493.767 231.386C466.983 203.039 442.859 181 417.848 162.026C414.481 159.473 411.011 156.912 407.526 154.414C344.113 108.934 261.768 72.6161 169.398 49.3787C58.3047 21.4876 -54.5875 13.7718 -148.485 27.6513C-245.615 42.09 -341.407 90.7508 -336.56 155.818L-336.926 155.827C-338.088 140.242 -333.478 124.96 -323.23 110.404C-313.733 96.9212 -299.553 84.237 -281.079 72.7064C-263.675 61.8427 -243.047 52.3439 -219.769 44.4718C-197.169 36.831 -173.218 31.0986 -148.577 27.4356C-99.0504 20.1161 -44.713 18.7161 12.9295 23.2795C64.7387 27.3806 117.427 36.0913 169.537 49.1739C261.962 72.4246 344.355 108.764 407.805 154.266C411.289 156.767 414.766 159.329 418.134 161.883C443.155 180.867 467.29 202.916 494.085 231.272C501.871 239.5 509.61 247.954 517.095 256.129C532.997 273.494 549.438 291.448 567.395 308.462C568.619 309.624 569.868 310.793 571.099 311.938C628.973 365.525 698.857 401.385 778.809 418.521C861.165 435.955 959.98 434.441 1064.57 414.138C1073.51 412.401 1082.64 410.49 1091.7 408.461C1188.25 386.837 1276.58 351.52 1358.78 317.199C1381.94 307.549 1404.9 297.546 1427.11 287.873C1498.04 256.977 1565.04 227.794 1640.77 207.942C1704.52 191.172 1757 189.171 1801.2 201.829C1821.92 207.775 1842.49 217.095 1864.09 230.319C1883.13 241.979 1900.49 255.075 1917.28 267.737C1927.32 275.312 1936.8 282.466 1946.37 289.123C2040.4 354.935 2136.31 423.375 2231.44 492.543L2231.16 492.684Z" fill="#FFE492"/>
<path d="M2227.27 490.612C2133.6 421.062 2039.51 351.861 1947.62 284.929C1938.35 278.195 1929.15 270.913 1919.4 263.204C1887.54 237.987 1851.43 209.405 1805.29 196.353C1760.67 183.746 1708.2 187.044 1644.87 206.431C1578.53 226.714 1517.57 255.354 1458.63 283.053C1429.07 296.942 1398.5 311.303 1367.36 324.593C1318.2 345.589 1276.84 361.606 1237.2 375.002C1188.31 391.518 1142.56 403.819 1097.35 412.607C1088.07 414.412 1078.69 416.09 1069.48 417.593C1021.46 425.423 974.314 429.386 929.209 429.388C926.703 429.388 924.212 429.375 921.72 429.351C869.574 428.84 821.033 422.936 777.446 411.806C756.407 406.404 735.804 399.547 716.212 391.424C697.797 383.789 679.701 374.797 662.425 364.697C631.343 346.527 602.287 324.61 573.605 297.699C572.374 296.541 571.146 295.381 569.926 294.216C553.284 278.338 537.54 261.74 522.316 245.688C513.526 236.422 504.439 226.84 495.287 217.513C467.107 188.776 443.235 167.573 417.877 148.767C414.466 146.237 410.952 143.702 407.423 141.227C343.241 96.1987 260.298 60.44 167.569 37.8123C55.7651 10.5618 -57.4349 3.60338 -151.179 18.2159C-246.487 33.1146 -342.155 82.1452 -340.598 147.03L-340.964 147.032C-341.69 116.81 -321.754 88.0713 -283.315 63.9247C-265.94 53.0104 -245.421 43.4434 -222.323 35.4833C-199.848 27.7389 -175.944 21.8569 -151.271 18.0002C-101.803 10.2889 -47.4065 8.49917 10.4045 12.6817C62.3384 16.4394 115.261 24.8244 167.705 37.6054C260.492 60.2484 343.482 96.0291 407.705 141.084C411.234 143.561 414.755 146.099 418.166 148.628C443.536 167.445 467.418 188.655 495.605 217.403C504.758 226.732 513.849 236.314 522.635 245.58C537.859 261.63 553.6 278.226 570.238 294.1C571.458 295.264 572.682 296.424 573.913 297.58C634.86 354.767 701.483 392.064 777.589 411.603C882.999 438.521 994.447 429.604 1069.38 417.382C1078.59 415.878 1087.96 414.203 1097.24 412.398C1201.22 392.185 1296.1 354.76 1367.15 324.415C1398.29 311.129 1428.85 296.768 1458.4 282.882C1517.37 255.178 1578.33 226.529 1644.71 206.237C1673.04 197.562 1698.69 192.235 1723.1 189.954C1753.22 187.141 1780.92 189.228 1805.44 196.157C1826.1 202.002 1846.48 211.397 1867.72 224.878C1886.44 236.757 1903.35 250.134 1919.7 263.074C1929.44 270.781 1938.63 278.061 1947.9 284.79C2039.79 351.722 2133.88 420.924 2227.56 490.473L2227.27 490.612Z" fill="#FFE492"/>
<path d="M2223.39 488.537L1949.15 280.589C1940.19 273.797 1931.3 266.408 1921.88 258.586C1890.81 232.773 1855.58 203.517 1809.53 190.681C1765 178.27 1710.94 182.994 1648.83 204.724C1589.13 225.612 1534.68 253.391 1482.02 280.256C1447.7 297.768 1412.2 315.874 1375.74 331.81C1266.13 379.707 1170.34 407.996 1074.28 420.841C1034.43 426.168 995.114 428.85 956.99 428.85C945.434 428.85 933.995 428.603 922.676 428.11C869.299 425.785 820.018 417.97 776.207 404.886C735.602 392.756 698.457 375.634 662.659 352.538C634.072 334.095 606.669 312.108 576.423 283.343C560.458 268.162 545 252.389 530.051 237.136C496.217 202.619 461.233 166.926 417.921 135.513C351.485 87.3322 264.281 49.5483 165.737 26.2448C53.2257 -0.362912 -60.282 -6.56631 -153.872 8.77929C-244.483 23.6362 -342.829 70.4853 -344.639 138.243L-345.006 138.238C-344.196 107.952 -323.637 79.2181 -285.553 55.1419C-251.119 33.3728 -204.388 16.8318 -153.967 8.56576C-104.554 0.464796 -50.0997 -1.71674 7.87616 2.08499C59.9346 5.49708 113.092 13.5584 165.873 26.0401C214.633 37.5707 260.943 52.749 303.519 71.1545C346.45 89.7141 385.036 111.318 418.199 135.368C461.53 166.792 496.525 202.494 530.366 237.02C545.315 252.271 560.773 268.041 576.734 283.219C620.863 325.19 683.438 376.924 776.372 404.683C882.951 436.517 997.155 430.921 1074.19 420.621C1170.21 407.785 1265.95 379.506 1375.52 331.627C1411.97 315.698 1447.46 297.592 1481.78 280.085C1534.45 253.215 1588.92 225.429 1648.65 204.53C1710.86 182.763 1765.04 178.034 1809.69 190.479C1830.31 196.226 1850.49 205.703 1871.4 219.455C1889.8 231.56 1906.26 245.233 1922.18 258.454C1931.59 266.276 1940.49 273.661 1949.44 280.45L2223.68 488.398L2223.39 488.537Z" fill="#FFE492"/>
<path d="M2221.18 472.549C2151.35 414.649 2091.43 367.666 2032.62 324.693C2004.08 303.818 1974.92 283.27 1945.97 263.621C1937.21 257.677 1928.54 251.355 1919.35 244.661C1896.27 227.836 1872.4 210.439 1844.93 197.528C1830.18 190.583 1815.98 185.61 1801.52 182.325C1757.14 172.144 1705.07 178.876 1646.75 202.336C1616.57 214.458 1589.09 228.254 1566.19 240.15C1541.95 252.744 1518.03 266.633 1494.9 280.063C1461.66 299.369 1427.28 319.331 1390.33 336.475C1367.84 346.938 1345.05 356.287 1322.58 364.265C1277.62 380.224 1229.36 393.375 1179.15 403.352C1148.13 409.447 1116.95 414.055 1086.5 417.044C1060.26 419.611 1033.96 421.092 1008.35 421.447C970.012 421.98 932.661 419.948 897.333 415.402C859.769 410.568 824.221 402.852 791.677 392.466C762.658 383.205 735.247 371.544 707.881 356.815C656.885 329.391 616.21 297.68 586.473 273.118C571.865 260.995 557.601 248.632 543.806 236.677C504.084 202.245 466.564 169.725 419.614 140.757C381.321 117.287 337.631 97.0319 289.746 80.5526C252.948 67.8883 212.926 57.5309 170.793 49.7668C160.758 47.9199 150.531 46.1984 140.408 44.6553C96.8206 38.0226 47.752 33.7036 -5.43133 31.817C-59.0506 29.871 -105.441 31.555 -147.244 36.9704C-170.877 40.0082 -193.773 44.7741 -215.307 51.1338C-291.328 73.5876 -340.143 111.281 -345.889 151.967L-346.347 151.942C-344.815 141.096 -340.319 130.413 -332.988 120.186C-326.022 110.471 -316.456 101.102 -304.555 92.3387C-282.069 75.7845 -251.276 61.4494 -215.508 50.8851C-193.942 44.5144 -171.009 39.7419 -147.339 36.6996C-105.492 31.2799 -59.0653 29.5936 -5.40203 31.5418C47.8106 33.4284 96.9048 37.7518 140.521 44.3889C150.656 45.9342 160.886 47.6557 170.929 49.5048C213.095 57.2734 253.15 67.6395 289.977 80.3149C337.895 96.8052 381.621 117.077 419.932 140.564C466.913 169.549 504.439 202.078 544.176 236.518C557.967 248.474 572.231 260.834 586.836 272.955C616.558 297.506 657.214 329.201 708.181 356.608C735.518 371.322 762.9 382.972 791.886 392.222C855.577 412.547 928.4 422.288 1008.33 421.172C1033.93 420.817 1060.2 419.336 1086.43 416.771C1116.86 413.782 1148.01 409.179 1179 403.088C1229.19 393.118 1277.41 379.976 1322.34 364.025C1344.8 356.054 1367.58 346.709 1390.04 336.255C1426.98 319.119 1461.35 299.162 1494.58 279.863C1517.71 266.43 1541.63 252.537 1565.89 239.939C1588.8 228.036 1616.29 214.236 1646.5 202.104C1672.46 191.659 1697.6 184.443 1721.22 180.655C1750.24 176.001 1777.31 176.476 1801.68 182.068C1816.19 185.363 1830.42 190.349 1845.21 197.31C1872.72 210.241 1896.6 227.649 1919.7 244.485C1928.89 251.177 1937.56 257.499 1946.31 263.438C1975.27 283.09 2004.43 303.639 2032.98 324.519C2091.79 367.496 2151.71 414.484 2221.55 472.388L2221.18 472.549Z" fill="#FFE492"/>
<path d="M2218.97 456.56C2154.22 397.68 2093.46 348.41 2033.19 305.935C2003.81 285.187 1973.39 265.243 1942.79 246.657C1934.67 241.726 1926.66 236.601 1918.17 231.177C1892.76 214.933 1866.48 198.137 1837.05 186.516C1822.19 180.623 1807.95 176.52 1793.51 173.97C1738.22 164.205 1682.06 182.705 1644.67 199.944C1618.19 212.122 1594 225.891 1569.49 240.106C1548.05 252.548 1527.87 265.932 1506.51 280.1C1474.8 301.131 1442.02 322.879 1404.92 341.139C1382.9 352.033 1359.92 361.453 1336.62 369.135C1293.22 383.449 1245.7 394.563 1191.33 403.118C1160.9 407.903 1129.75 411.313 1098.72 413.248C1072.54 414.862 1046.41 415.439 1021.04 414.957C983.313 414.248 946.431 411.06 911.417 405.484C874.645 399.626 839.559 391.068 807.136 380.045C778.728 370.39 751.3 358.411 723.281 343.424C672.395 316.244 628.804 286.112 596.517 262.896C584.565 254.302 572.803 245.655 561.426 237.29C516.121 203.979 473.328 172.513 421.307 146.005C382.428 126.192 338.778 109.44 291.578 96.2144C255.865 86.2071 218.012 78.7093 175.861 73.2918C166.133 72.0436 156.237 70.9187 146.45 69.9479C103.464 65.7059 57.5864 64.1011 2.08012 62.4413C-37.931 61.1843 -90.3082 60.3566 -140.626 65.16C-164.457 67.3921 -187.493 71.2687 -209.1 76.6774C-285.172 95.7257 -336.776 129.001 -347.145 165.693L-347.688 165.638C-344.939 155.908 -339.37 146.366 -331.144 137.272C-323.303 128.607 -313 120.299 -300.524 112.573C-276.814 97.894 -245.274 85.375 -209.312 76.3714C-187.665 70.9517 -164.585 67.0686 -140.714 64.832C-90.3485 60.022 -37.931 60.8519 2.10575 62.1089C57.6304 63.7687 103.522 65.3735 146.538 69.6177C156.332 70.5907 166.236 71.7156 175.975 72.9638C218.166 78.3879 256.056 85.8923 291.809 95.9106C339.057 109.15 382.743 125.915 421.662 145.747C473.72 172.275 516.531 203.75 561.851 237.074C573.224 245.437 584.986 254.084 596.938 262.676C629.218 285.883 672.791 316.004 723.647 343.171C751.633 358.142 779.032 370.108 807.407 379.753C871.161 401.425 943.049 413.156 1021.06 414.622C1046.4 415.102 1072.51 414.527 1098.66 412.914C1129.66 410.981 1160.79 407.575 1191.19 402.792C1245.51 394.246 1293 383.14 1336.36 368.84C1359.63 361.167 1382.58 351.76 1404.57 340.877C1441.64 322.632 1474.41 300.894 1506.11 279.873C1527.48 265.698 1547.66 252.312 1569.12 239.863C1593.63 225.641 1617.83 211.867 1644.34 199.676C1668.58 188.499 1692.48 180.46 1715.39 175.776C1743.17 170.096 1769.51 169.381 1793.67 173.647C1808.16 176.207 1822.45 180.324 1837.36 186.234C1866.84 197.877 1893.14 214.689 1918.58 230.946C1927.06 236.368 1935.08 241.49 1943.19 246.419C1973.8 265.012 2004.22 284.962 2033.62 305.717C2093.89 348.203 2154.68 397.482 2219.43 456.375L2218.97 456.56Z" fill="#FFE492"/>
<path d="M2216.76 440.568C2156.16 379.91 2096.31 329.735 2033.77 287.176C2003.53 266.556 1971.85 247.217 1939.62 229.692C1932.73 225.946 1925.63 221.97 1918.77 218.127C1890.45 202.246 1861.16 185.826 1829.18 175.504C1814.17 170.626 1799.88 167.39 1785.51 165.613C1730.33 158.791 1677.34 179.215 1642.59 197.548C1619.05 209.924 1597.52 223.951 1576.7 237.518L1572.8 240.059C1553.9 252.366 1536.17 265.865 1517.4 280.158C1487.5 302.918 1456.59 326.45 1419.51 345.8C1397.93 357.142 1374.77 366.632 1350.67 374.006C1308.64 386.864 1261.88 396.04 1203.5 402.881C1173.31 406.419 1142.17 408.629 1110.93 409.448C1084.81 410.106 1058.84 409.776 1033.73 408.462C957.701 404.502 886.663 390.761 822.587 367.622C794.887 357.619 767.44 345.325 738.681 330.03C690.012 304.201 646.725 277.653 606.563 252.675C601.177 249.326 595.85 246 590.563 242.7C535.709 208.471 483.899 176.14 423.011 151.256C383.26 135.01 339.654 121.763 293.41 111.878C259.46 104.623 222.665 99.6962 180.932 96.8168C171.527 96.1718 161.96 95.6413 152.496 95.2407C128.687 94.25 103.434 94.0893 76.6981 93.9198C55.2233 93.7834 33.0193 93.6425 9.58787 93.0679C-35.6665 91.8638 -86.9555 90.5011 -134.016 93.3541C-158.298 94.8268 -181.473 97.8118 -202.9 102.228C-278.943 117.901 -333.339 146.763 -348.409 179.433L-349.028 179.33C-345.057 170.716 -338.417 162.314 -329.298 154.356C-320.577 146.746 -309.541 139.494 -296.497 132.804C-271.549 120.01 -239.254 109.312 -203.112 101.862C-181.637 97.4354 -158.415 94.4438 -134.086 92.9689C-86.9774 90.1137 -35.6628 91.4785 9.60985 92.6827C33.0266 93.255 55.2306 93.3981 76.6981 93.5346C103.445 93.7041 128.705 93.8648 152.536 94.8576C162.008 95.2605 171.585 95.791 180.998 96.436C222.783 99.3175 259.621 104.251 293.619 111.517C339.918 121.412 383.571 134.676 423.366 150.939C484.31 175.845 536.145 208.192 591.021 242.436C596.308 245.736 601.639 249.06 607.021 252.41C647.175 277.385 690.448 303.926 739.102 329.746C767.832 345.023 795.25 357.307 822.917 367.297C886.909 390.406 957.855 404.127 1033.78 408.083C1058.87 409.395 1084.81 409.725 1110.9 409.067C1142.1 408.248 1173.22 406.04 1203.37 402.507C1261.69 395.672 1308.41 386.508 1350.37 373.667C1374.43 366.308 1397.54 356.836 1419.08 345.514C1456.12 326.189 1487.01 302.669 1516.89 279.923C1535.67 265.623 1553.41 252.118 1572.33 239.801L1576.22 237.261C1597.05 223.687 1618.59 209.651 1642.17 197.262C1677.02 178.87 1730.2 158.386 1785.63 165.239C1800.07 167.024 1814.41 170.271 1829.48 175.169C1861.53 185.514 1890.85 201.951 1919.21 217.849C1926.06 221.693 1933.16 225.668 1940.04 229.413C1972.29 246.947 2003.98 266.296 2034.24 286.927C2096.81 329.504 2156.68 379.697 2217.3 440.375L2216.76 440.568Z" fill="#FFE492"/>
<path d="M2214.55 424.576C2158.91 363.003 2098.28 310.463 2034.34 268.422C2003.26 247.932 1970.32 229.196 1936.45 212.734C1931.56 210.357 1926.55 207.889 1921.7 205.503C1889.69 189.739 1856.59 173.436 1821.33 164.498C1806.19 160.622 1791.86 158.255 1777.52 157.26C1722.5 153.448 1672.65 175.763 1640.52 195.154C1620.57 207.134 1602.57 220.457 1585.15 233.341C1582.14 235.571 1579.13 237.797 1576.11 240.013C1559.55 252.191 1544.06 265.795 1527.66 280.197C1499.79 304.68 1470.96 329.996 1434.1 350.468C1412.45 362.49 1389.76 371.784 1364.71 378.885C1312.32 393.738 1259.97 399.235 1215.67 402.655C1185.7 404.967 1154.57 405.979 1123.14 405.658C1097.1 405.361 1071.29 404.121 1046.42 401.977C972.673 395.635 902.565 379.9 838.045 355.208C811.199 344.936 783.737 332.322 754.084 316.647C724.131 300.85 696.218 285.649 669.222 270.949C650.876 260.957 633.545 251.52 616.621 242.466C552.647 208.239 494.049 178.147 424.729 156.516C384.124 143.848 340.563 134.1 295.253 127.547C262.779 122.849 228.066 120.562 186.014 120.344C176.942 120.304 167.701 120.368 158.552 120.535C144.655 120.806 130.277 121.372 115.06 121.973C85.8582 123.124 52.7537 124.429 17.0955 123.699C3.5166 123.419 -10.3371 123.025 -23.7364 122.642C-58.2002 121.658 -93.8365 120.641 -127.41 121.55C-152.065 122.219 -175.383 124.315 -196.708 127.78C-272.622 140.118 -329.807 164.569 -349.681 193.184L-350.358 193.015C-345.155 185.521 -337.446 178.261 -327.447 171.435C-317.844 164.879 -306.075 158.687 -292.474 153.032C-266.265 142.135 -233.22 133.257 -196.905 127.355C-175.53 123.881 -152.16 121.779 -127.45 121.11C-93.8402 120.198 -58.1892 121.218 -23.7071 122.202C-10.3114 122.585 3.54225 122.979 17.1175 123.258C52.7428 123.989 85.8215 122.686 115.009 121.535C130.233 120.934 144.614 120.368 158.527 120.097C167.687 119.93 176.935 119.866 186.018 119.906C228.129 120.121 262.893 122.415 295.422 127.119C340.786 133.682 384.406 143.44 425.062 156.127C456.375 165.896 488.106 178.274 522.067 193.966C552.472 208.012 582.047 223.382 617.105 242.138C634.029 251.194 651.36 260.631 669.709 270.623C696.702 285.321 724.615 300.522 754.561 316.316C784.184 331.977 811.617 344.577 838.43 354.838C902.862 379.497 972.87 395.21 1046.51 401.544C1071.36 403.686 1097.14 404.923 1123.14 405.22C1154.54 405.541 1185.64 404.531 1215.56 402.22C1259.81 398.805 1312.1 393.315 1364.39 378.489C1389.37 371.407 1412.01 362.137 1433.6 350.147C1470.39 329.709 1499.2 304.414 1527.05 279.95C1543.46 265.54 1558.95 251.929 1575.54 239.738C1578.55 237.521 1581.56 235.296 1584.57 233.068C1602 220.175 1620.02 206.843 1639.99 194.848C1660.9 182.232 1682.34 172.527 1703.73 166.002C1729.07 158.273 1753.92 155.187 1777.59 156.829C1792 157.828 1806.4 160.206 1821.6 164.098C1856.95 173.059 1890.1 189.382 1922.15 205.166C1927 207.552 1932.01 210.02 1936.89 212.395C1970.79 228.87 2003.75 247.623 2034.86 268.129C2068.81 290.453 2102.06 315.887 2133.68 343.725C2161.63 368.33 2189.05 395.464 2215.17 424.369L2214.55 424.576Z" fill="#FFE492"/>
<path d="M2212.33 408.58C2160.84 345.24 2101.15 291.774 2034.92 249.664C2002.98 229.304 1968.79 211.174 1933.29 195.773C1931.6 195.04 1929.91 194.307 1928.22 193.572C1891.3 177.537 1853.13 160.957 1813.49 153.492C1798.13 150.599 1783.75 149.1 1769.55 148.906C1714.75 148.162 1668.02 172.342 1638.47 192.755C1621.08 204.697 1605.64 217.787 1590.71 230.444C1587.02 233.575 1583.2 236.811 1579.44 239.963C1565.09 251.969 1551.75 265.62 1537.62 280.074C1511.94 306.364 1485.38 333.549 1448.71 355.131C1427.49 367.617 1404.61 376.981 1378.76 383.762C1327.84 397.117 1276.13 400.624 1227.84 402.425C1198.06 403.534 1166.94 403.345 1135.34 401.863C1109.4 400.608 1083.75 398.462 1059.11 395.486C987.871 386.901 918.694 369.171 853.507 342.788C827.401 332.224 800.705 319.663 769.499 303.258C710.189 272.166 666.148 250.267 626.701 232.254C548.243 196.427 488.362 175.349 426.48 161.775C385.051 152.688 341.534 146.443 297.129 143.212C266.322 140.971 233.628 141.171 191.125 143.868C182.416 144.427 173.505 145.085 164.638 145.827C156.262 146.538 147.754 147.352 138.745 148.213C105.479 151.394 67.7725 155 24.6177 154.326C1.8714 153.972 -21.3622 153.001 -43.83 152.063C-69.3645 150.998 -95.7675 149.895 -120.8 149.745C-145.899 149.595 -169.359 150.802 -190.512 153.333C-266.174 162.383 -326.154 182.426 -350.956 206.947L-351.659 206.69C-345.218 200.319 -336.439 194.201 -325.568 188.506C-315.074 183.007 -302.58 177.876 -288.429 173.251C-260.942 164.265 -227.137 157.208 -190.673 152.847C-169.462 150.311 -145.95 149.1 -120.793 149.25C-95.7382 149.4 -69.3206 150.502 -43.775 151.57C-21.3145 152.508 1.90802 153.479 24.6359 153.833C67.7139 154.504 105.38 150.903 138.609 147.726C147.623 146.864 156.138 146.051 164.517 145.338C173.395 144.596 182.314 143.938 191.03 143.377C233.599 140.678 266.348 140.475 297.221 142.723C341.688 145.959 385.267 152.213 426.755 161.313C488.721 174.904 548.664 196.004 627.192 231.862C666.653 249.882 710.71 271.788 770.034 302.888C801.218 319.28 827.885 331.827 853.962 342.381C919.061 368.726 988.135 386.432 1059.26 395.004C1083.87 397.976 1109.49 400.118 1135.4 401.372C1166.96 402.852 1198.04 403.041 1227.78 401.934C1276 400.135 1327.62 396.637 1378.43 383.313C1404.18 376.559 1426.98 367.225 1448.12 354.783C1484.71 333.247 1511.25 306.091 1536.91 279.829C1551.04 265.367 1564.39 251.705 1578.76 239.681C1582.53 236.531 1586.35 233.295 1590.03 230.165C1604.97 217.496 1620.42 204.398 1637.84 192.436C1657.12 179.113 1677.34 168.575 1697.93 161.113C1722.05 152.371 1746.15 148.103 1769.56 148.418C1783.85 148.611 1798.29 150.119 1813.73 153.025C1853.5 160.516 1891.73 177.119 1928.7 193.178C1930.39 193.913 1932.08 194.648 1933.77 195.379C1969.31 210.797 2003.54 228.95 2035.51 249.332C2101.8 291.479 2161.54 344.987 2213.07 408.37L2212.33 408.58Z" fill="#FFE492"/>
<path d="M1246.07 402.196C1244.01 402.196 1241.99 402.194 1239.99 402.187C1210.37 402.112 1179.26 400.725 1147.54 398.062C1121.69 395.849 1096.2 392.796 1071.79 388.99C1036.91 383.561 1001.9 375.76 967.733 365.803C934.739 356.188 901.51 344.265 868.966 330.364C837.078 316.744 807.293 301.568 784.906 289.868C732.525 262.567 682.687 239.747 636.777 222.042C562.419 193.367 496.155 175.886 428.235 167.03C387.261 161.688 343.3 158.87 300.973 158.87C300.317 158.87 299.665 158.87 299.009 158.872C262.647 158.947 228.125 163.006 196.24 167.382C187.941 168.529 179.357 169.782 170.724 171.109C165.994 171.845 161.256 172.602 156.244 173.403C120.89 179.063 80.8164 185.475 32.1325 184.949C2.48324 184.628 -27.7999 182.783 -57.0865 180.998C-75.9965 179.844 -95.5477 178.653 -114.198 177.934C-139.835 176.945 -163.427 177.262 -184.327 178.88C-259.586 184.7 -322.362 200.339 -352.256 220.715L-352.945 220.351C-337.611 209.901 -314.546 200.854 -284.391 193.457C-255.592 186.396 -221.029 181.165 -184.444 178.336C-163.49 176.716 -139.835 176.395 -114.139 177.388C-95.4707 178.107 -75.9085 179.301 -56.9912 180.454C-27.723 182.239 2.54184 184.084 32.1508 184.403C80.7101 184.929 120.714 178.526 156.009 172.877C161.025 172.074 165.763 171.316 170.497 170.581C179.137 169.254 187.729 167.999 196.035 166.852C227.975 162.469 262.556 158.403 299.005 158.326C342.006 158.236 386.755 161.062 428.43 166.497C463.483 171.07 497.467 177.799 532.316 187.071C565.878 196.002 600.21 207.291 637.268 221.584C683.215 239.303 733.089 262.139 785.503 289.458C807.872 301.152 837.635 316.317 869.49 329.921C935.527 358.129 1003.67 377.825 1072.02 388.464C1096.4 392.266 1121.85 395.314 1147.67 397.525C1179.35 400.184 1210.41 401.571 1239.99 401.643C1286.28 401.758 1340.03 400.82 1392.46 388.129C1418.99 381.706 1441.95 372.313 1462.64 359.415C1498.98 336.763 1523.06 307.69 1546.36 279.572C1558.35 265.109 1569.67 251.448 1581.97 239.622C1585.92 235.833 1589.9 231.93 1593.74 228.155C1606.74 215.4 1620.18 202.214 1635.67 190.026C1653.36 176.003 1672.35 164.629 1692.11 156.219C1715.01 146.47 1738.36 141.015 1761.5 140.006C1775.79 139.384 1790.29 140.02 1805.83 141.952C1847.38 147.117 1888.57 162.121 1930.62 178.361C1967.28 192.52 2003.77 210.56 2036.14 230.533C2072.1 252.654 2105.89 278.606 2136.56 307.666C2163.88 333.556 2188.91 362.054 2210.95 392.371L2210.11 392.591C2162.78 327.484 2104.03 273.089 2035.49 230.918C2003.16 210.974 1966.73 192.96 1930.13 178.825C1888.15 162.614 1847.04 147.639 1805.64 142.492C1790.19 140.57 1775.77 139.938 1761.57 140.557C1719.04 142.413 1674.59 160.098 1636.4 190.36C1620.94 202.527 1607.51 215.702 1594.52 228.443C1590.68 232.221 1586.69 236.126 1582.75 239.915C1570.47 251.718 1559.15 265.369 1547.18 279.818C1535.75 293.614 1523.93 307.881 1510.37 321.596C1494.99 337.144 1479.6 349.639 1463.3 359.798C1442.52 372.753 1419.46 382.188 1392.8 388.642C1369.29 394.335 1344.02 398.097 1315.55 400.149C1291.43 401.877 1267.22 402.196 1246.07 402.196Z" fill="#FFE492"/>
<path d="M1304.82 403.299C1286.14 403.299 1268.19 402.63 1252.14 401.952C1222.62 400.706 1191.52 398.12 1159.73 394.263C1133.98 391.095 1108.66 387.137 1084.45 382.494C1018.18 369.808 952.74 348.69 884.41 317.94C854.61 304.531 826.518 290.104 800.306 276.477C748.555 249.654 696.929 227.905 646.853 211.83C573.206 188.19 504.301 175.622 430.002 172.281C387.667 170.377 343.025 171.154 300.896 174.526C265.633 177.348 232.39 184.159 201.356 190.891C193.591 192.584 185.333 194.433 176.814 196.386C174.685 196.877 172.538 197.376 170.362 197.88C134.619 206.184 94.1755 215.579 42.271 215.579C41.3953 215.579 40.5233 215.577 39.6403 215.57C4.52426 215.357 -31.3282 212.345 -66.0045 209.431C-79.7519 208.275 -93.9683 207.082 -107.609 206.116C-134.254 204.231 -157.33 203.674 -178.16 204.418C-253.921 207.126 -317.869 218.08 -353.601 234.478L-354.213 233.996C-336.549 225.89 -311.007 218.853 -280.357 213.644C-250.21 208.522 -214.892 205.123 -178.223 203.813C-157.334 203.067 -134.199 203.624 -107.496 205.512C-93.8401 206.479 -79.62 207.674 -65.869 208.828C-31.2256 211.738 4.59388 214.747 39.6439 214.961C92.6294 215.286 133.732 205.735 169.992 197.31C172.164 196.806 174.315 196.306 176.444 195.813C184.97 193.858 193.232 192.009 201.004 190.317C232.089 183.572 265.395 176.752 300.753 173.921C342.948 170.544 387.664 169.765 430.067 171.671C466.887 173.326 501.992 177.236 537.387 183.62C573.84 190.195 609.799 199.245 647.318 211.291C697.457 227.387 749.149 249.163 800.955 276.013C827.156 289.635 855.23 304.054 885.004 317.449C953.242 348.158 1018.58 369.244 1084.75 381.911C1108.92 386.545 1134.21 390.498 1159.92 393.662C1191.67 397.514 1222.72 400.099 1252.2 401.34C1301.8 403.431 1354.57 404.506 1406.48 392.933C1433.8 386.842 1456.91 377.389 1477.15 364.034C1513.19 340.244 1535.63 307.794 1555.42 279.163C1565.38 264.757 1574.79 251.151 1585.17 239.552C1588.92 235.367 1592.69 231.041 1596.33 226.859C1607.74 213.772 1619.53 200.24 1633.48 187.602C1649.63 172.88 1667.39 160.669 1686.28 151.309C1707.97 140.559 1730.56 133.92 1753.43 131.58C1767.73 130.116 1782.28 129.883 1797.92 130.86C1841.61 133.597 1886 147.117 1927.46 161.323C1965.75 174.438 2003.54 191.864 2036.77 211.716C2073.73 233.734 2107.78 259.945 2137.98 289.617C2164.98 316.152 2188.82 345.333 2208.83 376.355L2207.89 376.573C2165.36 310.633 2105.94 253.775 2036.06 212.143C2002.9 192.329 1965.18 174.936 1926.97 161.846C1885.6 147.674 1841.33 134.186 1797.82 131.461C1782.27 130.488 1767.81 130.722 1753.61 132.174C1711.38 136.496 1669.02 156.297 1634.33 187.932C1620.4 200.544 1608.62 214.062 1597.23 227.136C1593.59 231.321 1589.82 235.647 1586.07 239.836C1575.71 251.408 1566.31 265.002 1556.36 279.392C1536.53 308.067 1514.06 340.57 1477.89 364.439C1457.55 377.867 1434.3 387.373 1406.83 393.499C1383 398.813 1357.28 401.89 1328.21 402.901C1320.36 403.187 1312.53 403.299 1304.82 403.299Z" fill="#FFE492"/>
<path d="M1341.7 405.682C1341.43 405.682 1341.17 405.682 1340.9 405.682C1314.5 405.642 1288.58 403.7 1264.28 401.715C1234.81 399.306 1203.73 395.518 1171.92 390.459C1146.29 386.34 1121.13 381.473 1097.13 375.996C1033.5 361.496 970.818 339.102 899.865 305.516C874.312 293.424 849.166 280.403 824.844 267.813C821.803 266.237 818.758 264.663 815.713 263.089C763.695 236.272 710.277 215.591 656.947 201.621C583.92 182.493 510.269 174.612 431.786 177.529C388.752 179.13 344.15 183.504 302.801 190.178C270.177 195.446 241.106 203.897 206.489 214.397C199.472 216.535 191.979 218.842 182.914 221.66L182.409 221.818C164.92 227.291 145.098 233.492 122.865 238.207C97.33 243.623 72.5575 246.229 47.1549 246.198C7.54311 246.139 -32.8821 241.71 -71.9735 237.424C-81.5513 236.374 -91.4588 235.288 -101.022 234.306C-128.447 231.495 -151.662 230.075 -171.994 229.968C-246.857 229.571 -313.55 236.237 -354.968 248.252L-355.444 247.658C-335.157 241.771 -307.79 236.994 -276.305 233.842C-244.762 230.683 -208.686 229.116 -171.983 229.309C-151.593 229.417 -128.319 230.839 -100.835 233.657C-91.2646 234.639 -81.3571 235.724 -71.7757 236.774C-32.7318 241.054 7.64204 245.478 47.1585 245.538C47.3344 245.538 47.5139 245.538 47.6898 245.538C104.215 245.538 147.278 232.065 181.903 221.233L182.412 221.074C191.481 218.254 198.974 215.947 205.994 213.81C240.67 203.292 269.792 194.825 302.519 189.542C343.937 182.854 388.612 178.474 431.72 176.871C470.126 175.445 506.352 176.532 542.476 180.199C581.402 184.151 618.992 190.96 657.387 201.018C710.819 215.014 764.329 235.729 816.431 262.589C819.476 264.163 822.521 265.74 825.562 267.316C849.873 279.901 875.012 292.917 900.542 305.001C971.405 338.545 1033.99 360.908 1097.52 375.384C1121.48 380.855 1146.61 385.713 1172.2 389.827C1203.97 394.879 1235 398.661 1264.43 401.065C1317.15 405.376 1368.75 408.365 1420.53 397.763C1448.62 392.009 1471.9 382.497 1491.67 368.681C1527.39 343.725 1546.91 309.144 1564.13 278.631C1572.19 264.346 1579.8 250.852 1588.39 239.513C1591.7 235.15 1595.01 230.637 1598.22 226.272C1608.24 212.623 1618.61 198.512 1631.32 185.208C1645.95 169.778 1662.49 156.729 1680.46 146.422C1700.96 134.676 1722.79 126.856 1745.37 123.185C1759.37 120.908 1773.66 119.799 1789.01 119.799C1789.34 119.799 1789.68 119.799 1790.01 119.801C1837.74 119.951 1886.86 132.978 1924.32 144.311C1964.22 156.385 2003.33 173.195 2037.41 192.923C2075.37 214.84 2109.7 241.309 2139.42 271.597C2166.09 298.777 2188.74 328.643 2206.72 360.369L2205.68 360.582C2178.92 313.377 2127.86 246.055 2036.65 193.401C2002.65 173.716 1963.63 156.947 1923.82 144.901C1886.47 133.599 1837.51 120.609 1790.01 120.461C1774.37 120.406 1759.87 121.511 1745.66 123.823C1703.83 130.627 1663.56 152.544 1632.27 185.536C1619.59 198.81 1609.24 212.905 1599.22 226.538C1596.02 230.905 1592.7 235.42 1589.39 239.786C1580.83 251.096 1573.22 264.573 1565.17 278.842C1547.92 309.41 1528.37 344.057 1492.51 369.111C1472.6 383.019 1449.17 392.595 1420.88 398.386C1396.91 403.293 1371 405.682 1341.7 405.682Z" fill="#FFE492"/>
<path d="M1371.03 408.781C1365.34 408.781 1359.53 408.671 1353.58 408.451C1327.53 407.489 1302.22 404.603 1276.43 401.477C1246.53 397.853 1216.33 393.006 1184.11 386.657C1158.61 381.59 1133.61 375.818 1109.8 369.498C1049.39 353.49 989.41 329.924 915.32 293.091C896.919 283.945 878.526 274.351 860.737 265.073C851.053 260.023 841.043 254.799 831.124 249.698C778.487 222.701 723.285 203.091 667.049 191.411C592.746 175.977 516.381 173.151 433.581 182.771C389.837 187.854 345.275 195.825 304.718 205.821C272.137 213.852 243.756 225.129 213.707 237.069L211.63 237.895C206.936 239.766 202.191 241.663 197.387 243.583C194.621 244.69 191.836 245.804 189.026 246.927C171.505 253.965 152.58 261.306 130.878 266.957C105.681 273.517 80.7579 276.744 54.6774 276.823C11.2588 276.951 -33.0283 270.889 -75.8534 265.02C-81.9649 264.181 -88.289 263.316 -94.4263 262.495C-123.2 258.642 -145.884 256.426 -165.823 255.514C-239.404 252.153 -308.845 254.521 -356.345 262.015L-356.649 261.324C-309.024 253.81 -239.441 251.433 -165.732 254.801C-145.737 255.715 -122.995 257.938 -94.1662 261.797C-88.0253 262.62 -81.7011 263.485 -75.5859 264.324C-33.2847 270.12 10.4417 276.11 53.2851 276.11C53.7468 276.11 54.2085 276.11 54.6738 276.108C110.088 275.941 149.535 261.927 188.37 246.332C191.181 245.21 193.965 244.096 196.732 242.989C201.535 241.067 206.276 239.171 210.974 237.298L213.051 236.473C243.151 224.513 271.58 213.215 304.267 205.158C344.897 195.142 389.536 187.158 433.358 182.066C516.366 172.422 592.937 175.258 667.441 190.733C723.816 202.444 779.146 222.098 831.901 249.155C841.819 254.257 851.833 259.479 861.517 264.531C879.299 273.807 897.688 283.399 916.078 292.539C990.08 329.33 1049.98 352.862 1110.28 368.844C1134.06 375.153 1159.02 380.918 1184.48 385.977C1216.65 392.317 1246.81 397.158 1276.67 400.775C1321.99 406.267 1378.4 413.104 1434.57 402.573C1463.45 397.16 1486.88 387.589 1506.19 373.311C1541.57 347.159 1557.97 310.376 1572.45 277.926C1578.74 263.829 1584.68 250.513 1591.61 239.462C1594.31 235.156 1597.02 230.703 1599.63 226.395C1608.41 211.947 1617.49 197.009 1629.15 182.802C1642.3 166.655 1657.61 152.766 1674.64 141.522C1693.94 128.78 1715.03 119.784 1737.3 114.78C1751.6 111.568 1766.25 109.589 1782.1 108.728C1803.32 107.575 1825.91 108.808 1851.16 112.488C1872.52 115.605 1895.42 120.444 1921.17 127.284C1962.7 138.314 2003.11 154.51 2038.04 174.117C2077.02 195.93 2111.61 222.661 2140.85 253.564C2167.18 281.391 2188.64 311.941 2204.61 344.369L2203.47 344.572C2169.74 276.11 2110.7 215.76 2037.23 174.641C2002.39 155.087 1962.09 138.937 1920.68 127.94C1865.2 113.204 1821.21 107.324 1782.21 109.442C1766.46 110.296 1751.92 112.262 1737.72 115.449C1684.72 127.352 1650 158.818 1630.22 183.116C1618.59 197.289 1609.52 212.209 1600.75 226.639C1598.13 230.949 1595.42 235.405 1592.72 239.713C1585.81 250.731 1579.88 264.031 1573.6 278.111C1559.1 310.632 1542.66 347.491 1507.11 373.762C1487.65 388.152 1464.03 397.801 1434.92 403.258C1415.19 406.956 1394.15 408.781 1371.03 408.781Z" fill="#FFE492"/>
<path d="M1396.43 412.335C1357.68 412.335 1320.43 406.354 1288.56 401.238C1258.58 396.426 1228.4 390.412 1196.28 382.854C1170.93 376.845 1146.09 370.166 1122.46 363C1051.62 341.546 988.461 310.751 930.767 280.668C918.987 274.526 907.086 268.195 895.581 262.073C879.606 253.571 863.085 244.781 846.531 236.311C793.106 209.047 736.119 190.505 677.158 181.2C600.884 169.165 521.796 171.391 435.376 188.006C390.88 196.561 346.363 208.129 306.634 221.46C275.991 231.741 250.065 244.72 222.618 258.461C220.672 259.434 218.723 260.411 216.762 261.388L215.7 261.921C209.028 265.265 202.128 268.721 195.134 272.19C178.374 280.54 159.919 289.176 138.572 295.773C113.792 303.432 88.8111 307.251 62.192 307.449C15.4683 307.799 -32.153 299.908 -78.2024 292.275C-81.4304 291.741 -84.6437 291.208 -87.8424 290.682C-118.21 285.676 -140.363 282.708 -159.665 281.057C-231.399 274.924 -303.595 272.996 -357.742 275.768L-357.852 274.999C-303.617 272.221 -231.315 274.152 -159.485 280.294C-140.128 281.949 -117.928 284.923 -87.5053 289.938C-84.3066 290.464 -81.0933 290.996 -77.8616 291.534C-31.9001 299.15 15.6296 307.022 62.1737 306.679C119.981 306.247 160.692 288.344 194.313 271.596C201.308 268.127 208.207 264.671 214.879 261.329L215.942 260.796C217.902 259.817 219.851 258.841 221.797 257.868C249.292 244.103 275.262 231.102 306.007 220.787C345.809 207.431 390.411 195.843 434.984 187.273C475.955 179.397 514.439 174.849 552.629 173.37C595.23 171.721 637.235 174.105 677.48 180.456C736.629 189.789 793.784 208.384 847.359 235.723C863.924 244.198 880.449 252.99 896.428 261.494C907.933 267.616 919.826 273.945 931.602 280.084C989.237 310.135 1052.32 340.897 1123.03 362.311C1146.63 369.466 1171.43 376.136 1196.75 382.137C1228.81 389.683 1258.95 395.688 1288.89 400.494C1334.86 407.873 1392.07 417.057 1448.6 407.393C1478.26 402.321 1501.84 392.69 1520.69 377.95C1555.71 350.567 1568.81 311.522 1580.37 277.071C1585.01 263.229 1589.4 250.155 1594.81 239.419C1596.81 235.448 1598.82 231.344 1600.76 227.375C1608.36 211.851 1616.22 195.797 1626.96 180.403C1638.66 163.525 1652.73 148.794 1668.79 136.622C1686.91 122.888 1707.24 112.714 1729.21 106.38C1743.48 102.268 1758.18 99.4175 1774.16 97.663C1795.69 95.301 1819.58 95.3802 1845.17 97.8986C1867.57 100.104 1892.07 104.263 1917.99 110.261C1961.14 120.249 2002.86 135.828 2038.66 155.314C2078.65 177.026 2113.51 204.015 2142.27 235.534C2168.25 264.008 2188.52 295.245 2202.49 328.375L2201.24 328.565C2171.64 258.364 2113.6 197.038 2037.8 155.886C2002.12 136.464 1960.53 120.936 1917.53 110.981C1861.79 98.0791 1814.97 93.9691 1774.39 98.4225C1758.53 100.164 1743.93 102.995 1729.77 107.076C1677.49 122.144 1645.65 155.429 1628.15 180.7C1617.43 196.054 1609.58 212.087 1601.99 227.591C1600.05 231.56 1598.04 235.666 1596.04 239.641C1590.65 250.342 1586.26 263.398 1581.63 277.223C1576.06 293.797 1569.76 312.581 1560.61 330.191C1550.13 350.369 1537.4 366.144 1521.71 378.419C1512.64 385.516 1502.21 391.556 1490.71 396.373C1478.35 401.553 1464.3 405.511 1448.95 408.135C1431.38 411.139 1413.75 412.335 1396.43 412.335Z" fill="#FFE492"/>
<path d="M1419.33 416.234C1406.52 416.234 1393.1 415.486 1378.92 413.991C1351 411.048 1324.28 405.707 1300.7 400.998C1270.98 395.061 1239.94 387.676 1208.46 379.049C1183.27 372.106 1158.6 364.52 1135.12 356.498C1067.75 333.501 1009.71 302.922 946.214 268.242C940.572 265.16 934.841 262.016 929.301 258.974C907.482 247.001 884.923 234.62 861.938 222.922C807.626 195.34 748.859 177.867 687.267 170.99C609.575 162.315 525.427 169.8 437.172 193.24C391.884 205.268 347.407 220.431 308.55 237.093C279.293 249.638 255.209 264.429 229.711 280.089C227.121 281.681 224.519 283.277 221.903 284.879C215.392 288.873 208.379 293.159 201.245 297.449C186.285 306.477 168.053 316.764 146.27 324.585C121.886 333.342 96.8426 337.756 69.7142 338.075C20.052 338.663 -30.5005 328.783 -79.3895 319.229L-81.2509 318.866C-105.188 314.19 -130.51 309.466 -153.498 306.598C-223.569 297.856 -296.596 291.787 -359.123 289.509L-359.039 288.686C-296.446 290.966 -223.353 297.04 -153.22 305.79C-130.166 308.667 -104.8 313.398 -80.8258 318.08L-78.9645 318.443C-30.1817 327.975 20.2682 337.831 69.6886 337.247C126.763 336.574 166.181 317.44 200.274 296.861C207.408 292.573 214.414 288.287 220.925 284.296C223.541 282.696 226.142 281.098 228.733 279.508C254.275 263.821 278.402 249.004 307.755 236.417C346.685 219.722 391.247 204.53 436.618 192.48C478.026 181.484 518.773 173.907 557.722 169.962C602.225 165.456 645.896 165.527 687.523 170.174C749.35 177.077 808.334 194.611 862.829 222.289C885.831 233.997 908.402 246.382 930.232 258.362C935.772 261.402 941.503 264.546 947.145 267.627C1010.58 302.275 1068.56 332.82 1135.81 355.778C1159.25 363.787 1183.89 371.362 1209.04 378.296C1240.48 386.91 1271.46 394.284 1301.14 400.213C1347.66 409.507 1405.56 421.07 1462.65 412.21C1493.1 407.484 1516.84 397.795 1535.22 382.589C1569.85 353.938 1579.87 310.754 1587.92 276.054C1591.06 262.538 1594.02 249.772 1598.03 239.382C1599.3 236.106 1600.58 232.732 1601.81 229.467C1608.22 212.508 1614.86 194.97 1624.81 178.011C1640.17 151.619 1669.35 116.313 1721.14 97.9915C1735.45 92.9328 1750.2 89.2081 1766.25 86.6061C1808.24 79.7005 1858.23 81.9349 1914.84 93.2432C1959.61 102.187 2002.64 117.15 2039.3 136.515C2080.3 158.124 2115.43 185.372 2143.71 217.509C2156.69 232.25 2168.15 247.994 2177.8 264.303C2187.01 279.882 2194.61 296.06 2200.38 312.388L2199.04 312.559C2173.59 240.615 2116.53 178.314 2038.39 137.134C2001.87 117.841 1959 102.936 1914.4 94.0247C1858.06 82.767 1808.33 80.5392 1766.61 87.4008C1750.68 89.983 1736.03 93.6791 1721.84 98.7003C1670.41 116.894 1641.39 152.019 1626.1 178.281C1616.18 195.196 1609.56 212.71 1603.15 229.648C1601.91 232.912 1600.64 236.289 1599.37 239.567C1595.37 249.922 1592.41 262.67 1589.28 276.167C1585.23 293.628 1580.64 313.418 1572.79 332.096C1563.77 353.559 1551.84 370.235 1536.33 383.073C1527.48 390.397 1517.12 396.574 1505.56 401.43C1493.1 406.662 1478.78 410.559 1462.99 413.007C1449.14 415.16 1434.67 416.234 1419.33 416.234Z" fill="#FFE492"/>
<path d="M1440.44 420.35C1425.08 420.35 1408.89 419.154 1391.6 416.757C1363.58 412.876 1336.62 406.435 1312.83 400.751C1282.88 393.597 1251.87 385.014 1220.64 375.237C1195.62 367.368 1171.1 358.875 1147.79 349.992C1083.62 325.568 1028.59 294.089 970.323 260.765C967.44 259.116 964.556 257.465 961.665 255.814C934.57 240.335 906.555 224.326 877.349 209.533C822.092 181.6 761.544 165.196 697.387 160.776C616.8 155.222 529.857 167.904 438.967 198.465C393.504 213.751 347.868 233.019 310.466 252.719C282.224 267.594 259.573 284.331 235.592 302.051C232.752 304.149 229.905 306.254 227.036 308.363C221.306 312.583 214.487 317.586 207.349 322.705C194.129 332.208 176.117 344.284 153.964 353.369C129.969 363.212 104.87 368.228 77.2325 368.702C54.5155 369.043 29.4463 366.936 0.588436 362.258C-24.1877 358.243 -48.154 352.995 -74.6742 347.051C-98.8824 341.559 -124.432 335.886 -147.354 332.14C-215.252 321.04 -286.971 311.321 -360.516 303.247L-360.252 302.382C-286.664 310.458 -214.904 320.186 -146.969 331.29C-123.985 335.047 -98.3988 340.729 -74.1613 346.226C-29.7093 356.191 25.6137 368.598 77.1922 367.821C136.161 366.809 174.058 345.266 206.224 322.137C213.358 317.023 220.173 312.021 225.9 307.804C228.769 305.695 231.616 303.59 234.452 301.495C258.473 283.745 281.165 266.98 309.499 252.057C346.978 232.317 392.701 213.011 438.252 197.697C529.417 167.043 616.661 154.328 697.555 159.902C728.571 162.039 759.038 167.003 788.101 174.655C819.285 182.864 849.63 194.375 878.294 208.862C907.533 223.67 935.566 239.687 962.677 255.178C965.567 256.831 968.455 258.48 971.338 260.129C1029.55 293.424 1084.53 324.873 1148.57 349.251C1171.86 358.12 1196.33 366.602 1221.32 374.458C1252.5 384.219 1283.47 392.791 1313.37 399.934C1360.37 411.161 1418.86 425.133 1476.69 417.03C1508.02 412.641 1531.91 402.893 1549.73 387.233C1584.05 357.321 1590.16 311.627 1595.07 274.913C1596.83 261.782 1598.49 249.38 1601.24 239.351C1601.81 237.281 1602.38 235.201 1602.95 233.11C1608.08 214.22 1613.4 194.685 1622.63 175.622C1635.82 148.202 1662.2 111.021 1713.06 89.6061C1727.25 83.6316 1742.05 79.0352 1758.32 75.5527C1780.93 70.6679 1806.13 68.3719 1833.21 68.7241C1857.93 69.0455 1884.33 71.5705 1911.67 76.2263C1958.05 84.1225 2002.4 98.4687 2039.92 117.713C2081.93 139.216 2117.33 166.728 2145.14 199.482C2157.9 214.511 2168.94 230.578 2177.97 247.238C2186.62 263.193 2193.45 279.734 2198.26 296.401L2196.82 296.55C2175.84 223.926 2118.3 158.986 2038.97 118.382C2001.61 99.2216 1957.45 84.9348 1911.27 77.0694C1854.32 67.3703 1801.61 67.1325 1758.81 76.3782C1742.66 79.8343 1727.97 84.3955 1713.9 90.3237C1663.39 111.591 1637.15 148.58 1624.04 175.864C1614.83 194.877 1609.52 214.383 1604.39 233.248C1603.82 235.34 1603.25 237.422 1602.69 239.491C1599.94 249.483 1598.29 261.87 1596.53 274.982C1591.6 311.801 1585.47 357.627 1550.93 387.73C1542.34 395.279 1532.07 401.596 1520.41 406.503C1507.86 411.782 1493.26 415.612 1477.02 417.889C1465.3 419.526 1453.16 420.35 1440.44 420.35Z" fill="#FFE492"/>
<path d="M1460.27 424.636C1442.77 424.636 1424.24 422.936 1404.27 419.524C1376.01 414.697 1348.88 407.157 1324.95 400.507C1294.71 392.102 1263.71 382.317 1232.81 371.429C1207.97 362.646 1183.62 353.244 1160.44 343.49C1103.36 319.477 1054.59 290.061 1002.94 258.916C994.499 253.824 985.768 248.561 977.106 243.385C946.658 225.202 920.658 210.209 892.749 196.144C836.507 167.842 774.182 152.505 707.5 150.559C623.711 148.113 533.961 165.988 440.748 203.686C394.442 222.415 348.847 245.375 312.365 268.34C284.881 285.64 263.395 304.473 240.649 324.411C237.831 326.88 235.002 329.359 232.155 331.84C227.084 336.267 220.372 342.101 213.443 347.95C184.285 372.622 146.19 398.024 84.7408 399.322C82.8245 399.36 80.9009 399.378 78.981 399.378C30.9969 399.378 -17.9911 387.968 -68.1076 375.229L-71.2366 374.427C-96.0604 368.061 -119.51 362.049 -141.216 357.673C-223.015 341.18 -302.125 327.259 -361.907 316.974L-361.479 316.074C-301.682 326.363 -222.55 340.287 -140.721 356.786C-118.957 361.173 -95.4815 367.194 -70.6248 373.567L-67.4993 374.368C-15.5472 387.574 35.1886 399.353 84.6858 398.389C145.454 397.104 183.23 371.898 212.172 347.41C219.097 341.566 225.802 335.736 230.873 331.312C233.72 328.829 236.545 326.352 239.363 323.882C262.145 303.914 283.664 285.05 311.236 267.695C347.792 244.682 393.479 221.676 439.876 202.909C482.939 185.492 526.017 172.119 567.912 163.157C615.98 152.875 662.971 148.322 707.573 149.623C774.599 151.578 837.239 166.99 893.746 195.425C921.695 209.511 947.721 224.52 978.198 242.718C986.863 247.894 995.595 253.159 1004.04 258.251C1055.63 289.365 1104.37 318.753 1161.33 342.717C1184.48 352.46 1208.79 361.847 1233.6 370.617C1264.45 381.492 1295.4 391.261 1325.6 399.653C1373.01 412.828 1432.01 429.223 1490.73 421.842C1522.82 417.807 1546.87 408.002 1564.23 391.869C1598.11 360.594 1600.15 312.33 1601.79 273.548C1602.32 260.895 1602.83 248.942 1604.45 239.311L1604.48 239.091C1608.11 217.524 1611.85 195.224 1620.45 173.222C1627.89 154.03 1638.25 136.776 1651.25 121.935C1665.91 105.202 1683.98 91.5011 1704.96 81.2098C1719 74.3239 1733.86 68.8536 1750.37 64.4883C1794.99 52.6252 1849.66 50.7937 1908.49 59.1963C1932.16 62.5775 1955.51 67.7001 1977.9 74.4186C2000.41 81.1767 2021.49 89.4164 2040.54 98.9042C2083.57 120.304 2119.24 148.076 2146.56 181.45C2171.12 211.448 2188.26 245.668 2196.14 280.408L2194.6 280.533C2177.74 206.18 2121.23 140.241 2039.54 99.624C2001.35 80.6 1955.9 66.934 1908.13 60.112C1849.64 51.7579 1795.31 53.5696 1751.01 65.3512C1734.62 69.6835 1719.89 75.1098 1705.95 81.9406C1666.77 101.156 1637.73 132.796 1621.97 173.44C1613.4 195.385 1609.66 217.654 1606.04 239.19L1606 239.41C1604.39 249.005 1603.88 260.941 1603.35 273.577C1601.7 312.477 1599.66 360.887 1565.53 392.382C1557.16 400.161 1546.96 406.616 1535.23 411.564C1522.58 416.9 1507.72 420.667 1491.04 422.765C1481.11 424.011 1470.88 424.636 1460.27 424.636Z" fill="#FFE492"/>
<path d="M85.8798 430.029C64.4233 430.029 41.0578 427.517 14.6879 422.388C-11.5136 417.292 -37.4256 410.256 -61.5275 403.414C-65.8913 402.168 -70.2222 400.925 -74.5238 399.69C-95.9363 393.541 -116.162 387.734 -135.064 383.21C-210.437 365.179 -282.281 348.973 -351.762 333.303L-363.274 330.706L-362.696 329.779L-351.183 332.377C-281.699 348.05 -209.843 364.257 -134.456 382.292C-115.502 386.827 -95.2512 392.641 -73.813 398.798C-69.5151 400.033 -65.1842 401.277 -60.824 402.521C-11.3487 416.565 41.2154 430.176 92.1966 428.963C154.866 427.396 192.422 398.065 218.136 372.69C224.724 366.2 231.07 359.733 235.863 354.824C238.508 352.118 241.135 349.415 243.755 346.718C265.483 324.364 286.005 303.248 312.994 283.339C348.62 257.064 394.262 230.353 441.521 208.13C485.365 187.512 529.608 171.223 573.026 159.714C622.828 146.512 671.471 139.662 717.605 139.351C787.024 138.731 851.499 153.079 909.215 181.994C941.209 198.042 969.895 215.401 993.74 230.267C1006.71 238.357 1019.69 246.65 1032.24 254.669C1076.66 283.06 1122.59 312.415 1174.1 336.192C1197.11 346.815 1221.27 357.109 1245.88 366.784C1276.35 378.731 1307.29 389.698 1337.85 399.379C1385.61 414.511 1445.05 433.344 1504.77 426.66C1537.64 422.982 1561.84 413.12 1578.74 396.511C1612.18 363.819 1609.92 312.91 1608.1 272.005C1607.57 259.908 1607.06 248.481 1607.67 239.282C1609.04 218.543 1611.11 194.44 1618.28 170.833C1624.33 150.829 1633.45 132.732 1645.4 117.045C1658.92 99.3 1676.25 84.4233 1696.89 72.8266C1710.57 65.1417 1725.9 58.6191 1742.45 53.4371C1766.06 46.0185 1792.57 41.3539 1821.22 39.5752C1848.06 37.9088 1876.35 38.7849 1905.32 42.1772C1929.74 45.039 1953.82 49.7454 1976.88 56.169C2000.08 62.6321 2021.71 70.6847 2041.17 80.102C2063.6 90.9459 2084.22 103.751 2102.47 118.163C2119.75 131.818 2135.07 147.047 2148 163.425C2172.19 194.066 2188.11 228.993 2194.03 264.423L2192.39 264.522C2179.67 188.437 2124.18 121.501 2040.13 80.8747C2001.64 62.2469 1953.66 48.8495 1905 43.1502C1844.84 36.1037 1788.9 39.9648 1743.21 54.3154C1726.79 59.4556 1711.58 65.9275 1698.01 73.5508C1659.12 95.4014 1632.83 128.191 1619.9 171.011C1612.75 194.555 1610.68 218.615 1609.31 239.321C1608.71 248.488 1609.21 259.897 1609.75 271.978C1610.64 292.158 1611.66 315.032 1608.26 337.145C1604.31 362.804 1595.12 382.391 1580.15 397.028C1572 405.037 1561.88 411.63 1550.07 416.622C1537.32 422.016 1522.18 425.721 1505.08 427.633C1496.45 428.6 1487.83 429.038 1479.26 429.038C1427.93 429.038 1378.2 413.281 1337.08 400.253C1306.48 390.556 1275.49 379.574 1244.99 367.609C1220.33 357.921 1196.14 347.612 1173.1 336.973C1121.48 313.148 1075.5 283.762 1031.04 255.345C1018.49 247.328 1005.52 239.037 992.557 230.952C968.744 216.104 940.099 198.768 908.163 182.751C850.759 153.99 786.661 139.726 717.631 140.338C609.223 141.068 508.199 178.027 442.539 208.905C395.376 231.084 349.825 257.738 314.277 283.96C287.368 303.81 266.875 324.892 245.181 347.212C242.561 349.908 239.93 352.611 237.285 355.319C232.488 360.23 226.139 366.702 219.547 373.199C208.753 383.851 191.807 399.357 169.361 410.98C158.46 416.625 146.86 421.06 134.882 424.166C121.527 427.629 107.186 429.575 92.2662 429.947C90.1521 430.002 88.0233 430.029 85.8798 430.029Z" fill="#FFE492"/>
<path d="M92.7689 460.673C71.2867 460.673 47.9689 457.968 21.7381 452.447C-5.4196 446.732 -32.2696 438.697 -54.9499 431.589C-61.9188 429.401 -68.8732 427.182 -75.6003 425.036C-94.4041 419.037 -112.167 413.368 -128.915 408.741C-189.06 392.121 -248.813 375.895 -306.602 360.201C-325.717 355.011 -345.481 349.644 -364.637 344.431L-363.919 343.478C-344.763 348.691 -324.999 354.058 -305.884 359.248C-248.095 374.942 -188.335 391.17 -128.186 407.792C-111.394 412.433 -93.609 418.106 -74.7832 424.113C-68.0597 426.26 -61.1054 428.476 -54.1438 430.664C-7.10506 445.4 47.4559 460.999 99.7012 459.531C163.847 457.686 199.876 425.659 224.102 397.963C230.313 390.868 236.318 383.745 240.854 378.332C243.184 375.554 245.5 372.778 247.812 370.008C268.594 345.1 288.223 321.574 314.757 298.982C349.269 269.598 394.875 239.187 443.167 213.35C510.42 177.523 614.364 133.822 727.634 129.082C799.669 125.987 865.969 139.27 924.685 168.565C951.066 181.734 977.154 196.923 1009.28 217.821C1025.52 228.38 1041.63 239.325 1057.21 249.907C1097.74 277.44 1139.65 305.91 1186.88 329.673C1209.75 341.188 1233.74 352.387 1258.17 362.958C1287.76 375.745 1318.68 387.91 1350.09 399.115C1398.34 416.221 1458.38 437.515 1518.82 431.488C1551.95 428.252 1576.99 418.048 1593.25 401.164C1626.22 366.993 1619.15 311.087 1613.98 270.268C1612.53 258.812 1611.16 247.992 1610.89 239.264C1610.29 219.866 1610.34 194.288 1616.12 168.455C1626.09 123.691 1650.55 88.6983 1688.81 64.4548C1702.22 55.9136 1717.61 48.4929 1734.52 42.3973C1758.59 33.7152 1785.74 27.8751 1815.23 25.0419C1843.02 22.3739 1872.26 22.4157 1902.14 25.1674C1927.36 27.5404 1952.16 31.8419 1975.85 37.9484C1999.78 44.1166 2021.96 51.9754 2041.8 61.3069C2064.73 72.0891 2085.68 84.9384 2104.06 99.5003C2121.49 113.301 2136.75 128.745 2149.44 145.409C2173.26 176.695 2187.94 212.326 2191.92 248.45L2190.18 248.518C2181.62 170.696 2127.15 102.76 2040.73 62.1324C2001.55 43.7005 1952.23 30.9393 1901.88 26.202C1839.81 20.4895 1782.25 26.4002 1735.42 43.2955C1718.64 49.3404 1703.39 56.7017 1690.08 65.1747C1652.07 89.2574 1627.77 124.052 1617.85 168.596C1612.09 194.359 1612.04 219.885 1612.63 239.246C1612.91 247.944 1614.27 258.75 1615.72 270.191C1618.39 291.29 1621.42 315.208 1619.69 338.558C1617.67 365.747 1609.52 386.398 1594.76 401.69C1586.82 409.939 1576.78 416.675 1564.91 421.712C1552.05 427.173 1536.64 430.81 1519.11 432.522C1491.92 435.232 1462.66 432.798 1429.65 425.077C1400.96 418.366 1373.47 408.618 1349.21 400.019C1317.76 388.799 1286.79 376.617 1257.16 363.812C1232.69 353.225 1208.67 342.012 1185.76 330.481C1138.44 306.669 1096.48 278.168 1055.9 250.607C1040.33 240.028 1024.23 229.089 1008.01 218.538C975.934 197.678 949.894 182.518 923.575 169.38C865.207 140.252 799.328 127.048 727.751 130.123C614.969 134.845 511.369 178.412 444.317 214.131C396.121 239.915 350.61 270.263 316.172 299.585C289.71 322.114 270.111 345.607 249.362 370.477C247.05 373.249 244.734 376.025 242.404 378.803C237.864 384.22 231.855 391.351 225.637 398.452C201.198 426.394 164.807 458.707 99.7782 460.576C97.4662 460.64 95.1248 460.673 92.7689 460.673Z" fill="#FFE492"/>
<path d="M99.7962 491.324C41.0986 491.324 -20.49 469.665 -75.0876 450.463C-91.8651 444.563 -107.712 438.989 -122.771 434.276L-366 358.16L-365.154 357.185L-121.925 433.301C-106.825 438.025 -90.9601 443.606 -74.1606 449.514C-17.4525 469.458 46.8254 492.064 107.205 490.105C172.765 487.98 207.302 453.256 230.067 423.245C237.512 413.429 244.701 403.442 251.655 393.782C270.675 367.366 290.34 340.05 316.512 314.626C337.294 294.44 363.111 273.27 391.17 253.407C421.952 231.616 454.91 211.623 489.121 193.986C526.842 174.541 565.197 158.456 603.116 146.179C645.058 132.601 686.377 123.736 725.934 119.829C805.176 112.003 877.247 123.879 940.14 155.132C992.407 181.101 1036.83 213.215 1079.79 244.271C1117.19 271.304 1155.85 299.254 1199.64 323.148C1250.21 350.744 1304.95 376.211 1362.33 398.839C1410.68 417.905 1470.85 441.635 1532.86 436.302C1585.24 431.798 1615.52 410.744 1625.43 371.934C1633.87 338.923 1625.84 299.763 1619.4 268.299C1617.2 257.576 1615.13 247.448 1614.11 239.234C1608.49 193.957 1612.07 156.58 1625.06 124.971C1633.16 105.249 1645.12 87.6694 1660.6 72.72C1677.89 56.0206 1700.09 42.0992 1726.59 31.3434C1749.5 22.0383 1775.33 15.2802 1803.36 11.2561C1830.04 7.42579 1858.12 6.1424 1886.84 7.4412C1943.32 9.99477 1998.57 22.4456 2042.41 42.4977C2065.84 53.2161 2087.12 66.1116 2105.65 80.8232C2123.21 94.7665 2138.42 110.429 2150.86 127.38C2174.3 159.31 2187.76 195.648 2189.79 232.461L2187.96 232.498C2183.64 154.104 2128.81 83.4032 2041.3 43.376C1948.36 0.867968 1816.43 -3.80989 1727.6 32.257C1639.61 67.9849 1603.08 135.661 1615.93 239.153C1616.94 247.34 1619.02 257.455 1621.21 268.165C1627.67 299.697 1635.71 338.94 1627.24 372.101C1622.62 390.163 1613.35 404.679 1599.67 415.248C1591.97 421.189 1582.7 426.045 1572.1 429.678C1560.82 433.543 1547.7 436.139 1533.12 437.393C1527.16 437.906 1521.09 438.164 1514.93 438.164C1492.45 438.164 1468.52 434.75 1442.29 427.833C1412.74 420.04 1384.23 408.796 1361.32 399.761C1303.86 377.101 1249.05 351.6 1198.4 323.964C1154.51 300.02 1115.81 272.037 1078.37 244.976C1035.47 213.959 991.099 181.885 938.964 155.982C876.492 124.943 804.915 113.143 726.22 120.916C567.032 136.638 403.053 232.652 318.058 315.207C291.956 340.56 272.317 367.84 253.322 394.22C246.364 403.884 239.172 413.879 231.719 423.703C216.605 443.628 201.678 457.895 184.743 468.598C174.172 475.276 162.704 480.542 150.657 484.247C137.261 488.366 122.671 490.708 107.289 491.208C104.805 491.285 102.302 491.324 99.7962 491.324Z" fill="#FFE492"/>
</g>
</svg>
